<?xml version="1.0" encoding="utf-8"?>
<!-- Generator: Adobe Illustrator 17.0.0, SVG Export Plug-In . SVG Version: 6.00 Build 0)  -->
<!DOCTYPE svg PUBLIC "-//W3C//DTD SVG 1.1//EN" "http://www.w3.org/Graphics/SVG/1.1/DTD/svg11.dtd">
<svg version="1.1" id="图层_1" xmlns="http://www.w3.org/2000/svg" xmlns:xlink="http://www.w3.org/1999/xlink" x="0px" y="0px"
	 width="16px" height="16px" viewBox="0 0 16 16" enable-background="new 0 0 16 16" xml:space="preserve">
<path fill="#3C3C3C" d="M-2.893-0.625h-11.75c-0.827,0-1.5,0.673-1.5,1.5v10c0,0.827,0.673,1.5,1.5,1.5h11.75
	c0.827,0,1.5-0.673,1.5-1.5v-10C-1.393,0.048-2.066-0.625-2.893-0.625z M-14.643,0.375h11.75c0.275,0,0.5,0.224,0.5,0.5v7.537
	C-2.424,8.38-2.451,8.344-2.487,8.315C-3.081,7.827-5.143,6.85-8.362,5.521c-2.7-1.115-2.112-0.091-4.137,1.148
	c-0.196-0.065-0.504-0.12-0.972-0.158c-0.698-0.057-1.317,0.067-1.672,0.162V0.875C-15.143,0.599-14.919,0.375-14.643,0.375z"/>
<g>
	<path fill="#3C3C3C" d="M15,14H1V2h14V14z M4.984,8.305c1.03-0.281,1.64-2.179,4.09-1.232c0.998,0.386,3.664,3.63,4.926,2.947V3H2
		v5.448c0,0,0.827-0.736,1.645-0.571C4.237,7.996,4.645,8.398,4.984,8.305z"/>
</g>
<circle fill="#3C3C3C" cx="11.074" cy="5.394" r="1"/>
</svg>
