<?xml version="1.0" encoding="utf-8"?>
<!-- Generator: Adobe Illustrator 17.0.0, SVG Export Plug-In . SVG Version: 6.00 Build 0)  -->
<!DOCTYPE svg PUBLIC "-//W3C//DTD SVG 1.1//EN" "http://www.w3.org/Graphics/SVG/1.1/DTD/svg11.dtd">
<svg version="1.1" id="图层_1" xmlns="http://www.w3.org/2000/svg" xmlns:xlink="http://www.w3.org/1999/xlink" x="0px" y="0px"
	 width="16px" height="16px" viewBox="0 0 16 16" enable-background="new 0 0 16 16" xml:space="preserve">
<g>
	<rect x="1.5" y="1.5" fill="none" stroke="#3C3C3C" stroke-miterlimit="10" width="13" height="14"/>
	<line fill="none" stroke="#3C3C3C" stroke-miterlimit="10" x1="5.5" y1="2" x2="5.5" y2="15"/>
	<line fill="none" stroke="#3C3C3C" stroke-miterlimit="10" x1="10.5" y1="2" x2="10.5" y2="15"/>
	<line fill="none" stroke="#3C3C3C" stroke-miterlimit="10" x1="2" y1="4.5" x2="5" y2="4.5"/>
	<line fill="none" stroke="#3C3C3C" stroke-miterlimit="10" x1="2" y1="8.5" x2="5" y2="8.5"/>
	<line fill="none" stroke="#3C3C3C" stroke-miterlimit="10" x1="6" y1="8.5" x2="14" y2="8.5"/>
	<line fill="none" stroke="#3C3C3C" stroke-miterlimit="10" x1="2" y1="12.5" x2="5" y2="12.5"/>
	<line fill="none" stroke="#3C3C3C" stroke-miterlimit="10" x1="11" y1="4.5" x2="14" y2="4.5"/>
	<line fill="none" stroke="#3C3C3C" stroke-miterlimit="10" x1="11" y1="12.5" x2="14" y2="12.5"/>
</g>
<rect x="6" y="2" fill="#A0A0A0" width="4" height="6"/>
<rect x="6" y="9" fill="#A0A0A0" width="4" height="6"/>
<path fill="#3C3C3C" d="M16.445,26.307H4.751c-0.639,0-1.157,0.555-1.157,1.237v12.525c0,0.684,0.518,1.237,1.157,1.237h11.694
	c0.639,0,1.157-0.555,1.157-1.237V27.546C17.602,26.862,17.084,26.307,16.445,26.307z"/>
<rect x="4.64" y="34.385" fill="#FFFFFF" width="2.259" height="2.308"/>
<rect x="4.64" y="30.924" fill="#FFFFFF" width="2.259" height="2.308"/>
<rect x="4.64" y="27.462" fill="#FFFFFF" width="2.259" height="2.308"/>
<rect x="7.9" y="34.391" fill="#666666" width="5.396" height="5.898"/>
<rect x="7.9" y="27.4" fill="#666666" width="5.396" height="5.898"/>
<rect x="14.334" y="34.391" fill="#FFFFFF" width="2.281" height="2.33"/>
<rect x="14.334" y="30.895" fill="#FFFFFF" width="2.281" height="2.33"/>
<rect x="14.334" y="27.4" fill="#FFFFFF" width="2.281" height="2.33"/>
</svg>
