<?xml version="1.0" encoding="utf-8"?>
<!-- Generator: Adobe Illustrator 17.0.0, SVG Export Plug-In . SVG Version: 6.00 Build 0)  -->
<!DOCTYPE svg PUBLIC "-//W3C//DTD SVG 1.1//EN" "http://www.w3.org/Graphics/SVG/1.1/DTD/svg11.dtd">
<svg version="1.1" id="图层_1" xmlns="http://www.w3.org/2000/svg" xmlns:xlink="http://www.w3.org/1999/xlink" x="0px" y="0px"
	 width="16px" height="16px" viewBox="16 16 16 16" enable-background="new 16 16 16 16" xml:space="preserve">
<path fill="#3C3C3C" d="M22.207,17.006c-0.788,0.012-1.721,0.21-2.886,0.688l-1.542,5.26c1.234-0.506,2.215-0.736,3.031-0.729
	c1.238,0.009,2.107,0.511,2.917,1.052l1.532-5.24C24.418,17.473,23.521,16.986,22.207,17.006z M26.062,18.589l-1.532,5.271
	c1.342,0.903,2.964,1.643,5.938,0.323L32,18.943C28.898,20.215,27.404,19.486,26.062,18.589z M20.416,23.225
	c-0.788,0.019-1.725,0.224-2.886,0.698H17.51L16,29.152c3.107-1.275,4.57-0.534,5.916,0.365l1.552-5.292
	C22.629,23.66,21.728,23.193,20.416,23.225z M24.28,24.746l-1.521,5.219c1.344,0.904,2.823,1.628,5.927,0.354l1.479-5.094
	C27.003,26.297,25.626,25.643,24.28,24.746z"/>
</svg>
