<?xml version="1.0" encoding="utf-8"?>
<!-- Generator: Adobe Illustrator 17.0.0, SVG Export Plug-In . SVG Version: 6.00 Build 0)  -->
<!DOCTYPE svg PUBLIC "-//W3C//DTD SVG 1.1//EN" "http://www.w3.org/Graphics/SVG/1.1/DTD/svg11.dtd">
<svg version="1.1" id="图层_1" xmlns="http://www.w3.org/2000/svg" xmlns:xlink="http://www.w3.org/1999/xlink" x="0px" y="0px"
	 width="16px" height="16px" viewBox="16 16 16 16" enable-background="new 16 16 16 16" xml:space="preserve">
<path fill="#3C3C3C" d="M27.041,16.008c-0.631,0.014-1.262,0.232-1.778,0.667c-1.656,1.4-0.369,2.855-1.814,4.075
	c-1.444,1.221-2.725-0.239-4.38,1.161v0.003c-0.369,0.311-0.634,0.696-0.794,1.112c0,0.002,0,0.005-0.002,0.008
	c-0.033,0.085-0.059,0.169-0.085,0.256c-0.01,0.039-0.021,0.078-0.03,0.117c-0.002,0.004-0.002,0.009-0.003,0.014
	c-0.018,0.082-0.03,0.164-0.041,0.248c0,0.001,0,0.001,0,0.003c0,0.003-0.002,0.008-0.002,0.013
	c-0.005,0.039-0.008,0.077-0.012,0.117c-0.002,0.03-0.005,0.058-0.007,0.088c0,0.014-0.002,0.03-0.002,0.046c0,0.005,0,0.01,0,0.015
	c-0.002,0.039-0.002,0.077,0,0.116c0,0.02,0.002,0.041,0.002,0.061c0.002,0.029,0.005,0.058,0.007,0.088
	c0.003,0.044,0.008,0.086,0.014,0.13c0,0,0,0.001,0,0.002c0.012,0.083,0.023,0.165,0.041,0.248c0.002,0.004,0.002,0.008,0.003,0.014
	c0.008,0.039,0.019,0.077,0.03,0.116c0.025,0.088,0.052,0.173,0.085,0.256c0.002,0.003,0.002,0.006,0.002,0.009
	c0.16,0.416,0.426,0.8,0.794,1.111v0.003c1.655,1.399,2.936-0.059,4.38,1.161c1.446,1.22,0.159,2.675,1.814,4.074
	c1.178,0.995,2.954,0.864,3.97-0.289c1.014-1.153,0.884-2.895-0.293-3.889c-1.655-1.4-2.936,0.062-4.382-1.159
	c-0.728-0.617-0.761-1.294-0.828-1.993c0.066-0.699,0.099-1.376,0.828-1.992c1.446-1.221,2.726,0.24,4.382-1.16
	c1.177-0.995,1.307-2.736,0.293-3.889C28.662,16.315,27.853,15.99,27.041,16.008L27.041,16.008z"/>
</svg>
