<?xml version="1.0" encoding="utf-8"?>
<!-- Generator: Adobe Illustrator 17.0.0, SVG Export Plug-In . SVG Version: 6.00 Build 0)  -->
<!DOCTYPE svg PUBLIC "-//W3C//DTD SVG 1.1//EN" "http://www.w3.org/Graphics/SVG/1.1/DTD/svg11.dtd">
<svg version="1.1" id="图层_1" xmlns="http://www.w3.org/2000/svg" xmlns:xlink="http://www.w3.org/1999/xlink" x="0px" y="0px"
	 width="16px" height="16px" viewBox="0 0 16 16" enable-background="new 0 0 16 16" xml:space="preserve">
<g>
	<g>
		<path fill="#C4DCED" d="M0.5,6.306c0-0.02,0.006-0.557,0.654-0.557c0.489,0,3.797,0,4.949,0c0.659,0,0.654,0.61,0.654,0.61
			s-0.01,0.605,0.654,0.605c0.547,0,5.637-0.001,7.548-0.001c0.309,0,0.541,0.147,0.541,0.302l0,0V2.092
			c0-1.091-0.884-1.975-1.975-1.975H2.474C1.383,0.117,0.5,1.001,0.5,2.092V6.306z"/>
	</g>
	
		<linearGradient id="SVGID_1_" gradientUnits="userSpaceOnUse" x1="1926" y1="-2457.8831" x2="1926" y2="-2449.5149" gradientTransform="matrix(1 0 0 -1 -1918 -2442)">
		<stop  offset="0" style="stop-color:#D1E0ED"/>
		<stop  offset="1" style="stop-color:#E4EEFB"/>
	</linearGradient>
	<path fill="url(#SVGID_1_)" d="M2.47,15.883h11.092c1.091,0,1.938-0.906,1.938-1.997V9.031c0-0.155-0.232-0.302-0.541-0.302
		c-1.911,0-8.001,0.001-8.548,0.001c-0.664,0-0.654-0.605-0.654-0.605s0.005-0.61-0.654-0.61c-1.152,0-3.46,0-3.949,0
		C0.506,7.515,0.5,8.052,0.5,8.072v5.814C0.5,14.977,1.38,15.883,2.47,15.883z"/>
</g>
</svg>
