<?xml version="1.0" encoding="utf-8"?>
<!-- Generator: Adobe Illustrator 17.0.0, SVG Export Plug-In . SVG Version: 6.00 Build 0)  -->
<!DOCTYPE svg PUBLIC "-//W3C//DTD SVG 1.1//EN" "http://www.w3.org/Graphics/SVG/1.1/DTD/svg11.dtd">
<svg version="1.1" id="图层_1" xmlns="http://www.w3.org/2000/svg" xmlns:xlink="http://www.w3.org/1999/xlink" x="0px" y="0px"
	 width="16px" height="16px" viewBox="16 16 16 16" enable-background="new 16 16 16 16" xml:space="preserve">
<path fill="#3C3C3C" d="M17.877,17.872c-2.125,2.118-2.125,5.555,0,7.673c1.852,1.846,4.707,2.092,6.819,0.72
	c0.359,0.019,0.938,0.066,1.144,0.3c0.28,0.316-0.116,1.056,0.421,1.537l3.339,3.384c0,0,0.619,0.662,1.585-0.3
	c0.965-0.96,0.302-1.577,0.302-1.577l-3.342-3.384c-0.482-0.535-1.225-0.14-1.543-0.42c-0.234-0.205-0.283-0.782-0.3-1.139
	c1.377-2.104,1.13-4.947-0.722-6.794C23.453,15.756,20.003,15.756,17.877,17.872z M19.18,19.131
	c0.658-0.653,1.566-1.039,2.566-1.039c2.005,0,3.631,1.62,3.631,3.617c0,1.996-1.626,3.616-3.631,3.616
	c-2.002,0-3.629-1.62-3.629-3.616C18.118,20.711,18.525,19.786,19.18,19.131z"/>
</svg>
