<?xml version="1.0" encoding="UTF-8"?>
<!DOCTYPE svg PUBLIC "-//W3C//DTD SVG 1.1//EN" "http://www.w3.org/Graphics/SVG/1.1/DTD/svg11.dtd">
<svg version="1.1" xmlns="http://www.w3.org/2000/svg" xmlns:xlink="http://www.w3.org/1999/xlink" x="0px" y="0px" width="16" height="16" viewBox="0, 0, 16, 16">
  <g id="layer6_1_">
    <path d="M6.99,0 C6.335,0 5.802,0.552 5.802,1.198 L5.802,1.792 C5.582,1.871 5.373,1.963 5.167,2.063 L4.751,1.636 C4.747,1.636 4.744,1.636 4.74,1.636 C4.29,1.185 3.526,1.163 3.063,1.625 L1.627,3.063 C1.163,3.525 1.186,4.29 1.635,4.741 C1.635,4.744 1.635,4.748 1.635,4.751 L2.065,5.169 C1.964,5.376 1.872,5.585 1.791,5.804 L1.199,5.804 C0.553,5.803 -0.001,6.336 -0.001,6.99 L-0.001,9.01 C-0.001,9.667 0.553,10.199 1.199,10.199 L1.791,10.199 C1.872,10.418 1.964,10.627 2.065,10.835 L1.635,11.251 C1.635,11.254 1.635,11.258 1.635,11.261 C1.186,11.711 1.163,12.476 1.628,12.938 L3.065,14.377 C3.312,14.624 3.632,14.722 3.918,14.72 C4.22,14.717 4.523,14.584 4.742,14.365 C4.746,14.365 4.749,14.365 4.753,14.365 L5.168,13.937 C5.376,14.037 5.584,14.13 5.805,14.208 L5.805,14.801 C5.804,15.449 6.337,16 6.99,16 L9.01,16 C9.667,16 10.2,15.449 10.2,14.801 L10.2,14.208 C10.418,14.129 10.627,14.037 10.835,13.937 L11.252,14.365 C11.255,14.365 11.259,14.365 11.264,14.365 C11.714,14.817 12.476,14.838 12.941,14.377 L14.377,12.938 C14.84,12.476 14.818,11.712 14.366,11.261 C14.366,11.258 14.366,11.254 14.366,11.251 L13.939,10.835 C14.038,10.626 14.132,10.417 14.21,10.199 L14.804,10.199 C15.448,10.199 16,9.668 16,9.01 L16,6.99 C16,6.336 15.448,5.803 14.804,5.803 L14.21,5.803 C14.132,5.583 14.038,5.375 13.939,5.168 L14.366,4.75 C14.366,4.747 14.366,4.743 14.366,4.74 C14.818,4.289 14.839,3.525 14.377,3.062 L12.939,1.625 C12.476,1.163 11.714,1.185 11.262,1.636 C11.257,1.636 11.255,1.636 11.25,1.636 L10.835,2.063 C10.627,1.962 10.417,1.87 10.2,1.792 L10.2,1.198 C10.2,0.552 9.667,0 9.01,0 C9.01,0 6.99,0 6.99,0 z M6.99,0.666 L9.009,0.666 C9.3,0.666 9.531,0.904 9.531,1.197 L9.531,2.229 C10.047,2.366 10.549,2.581 11,2.843 L11.731,2.104 C11.938,1.896 12.266,1.89 12.469,2.093 L13.908,3.531 C14.111,3.736 14.104,4.063 13.896,4.271 L13.156,5 C13.418,5.451 13.632,5.952 13.771,6.468 L14.802,6.468 C15.095,6.468 15.333,6.701 15.333,6.989 L15.333,9.009 C15.333,9.299 15.095,9.532 14.802,9.532 L13.771,9.532 C13.632,10.048 13.417,10.55 13.156,11 L13.896,11.728 C14.104,11.935 14.111,12.264 13.908,12.468 L12.469,13.907 C12.264,14.111 11.938,14.104 11.731,13.897 L11,13.155 C10.549,13.418 10.047,13.633 9.531,13.769 L9.531,14.8 C9.531,15.095 9.3,15.333 9.009,15.333 L6.99,15.333 C6.701,15.333 6.469,15.095 6.469,14.8 L6.469,13.769 C5.952,13.633 5.452,13.417 5.001,13.155 L4.271,13.897 C4.168,14 4.041,14.05 3.907,14.051 C3.772,14.053 3.634,14.008 3.532,13.906 L2.092,12.467 C1.888,12.263 1.898,11.934 2.105,11.727 L2.843,11 C2.582,10.55 2.369,10.048 2.23,9.532 L1.199,9.532 C0.905,9.532 0.669,9.299 0.669,9.009 L0.669,6.989 C0.669,6.701 0.906,6.468 1.199,6.468 L2.23,6.468 C2.369,5.953 2.582,5.451 2.843,5 L2.105,4.271 C1.898,4.063 1.89,3.736 2.093,3.531 L3.533,2.093 C3.737,1.89 4.065,1.896 4.271,2.104 L5.001,2.843 C5.452,2.58 5.952,2.366 6.469,2.229 L6.469,1.197 C6.469,0.904 6.701,0.666 6.99,0.666 z M8,5.781 C6.778,5.781 5.782,6.777 5.782,8 C5.782,9.223 6.778,10.22 8,10.22 C9.224,10.22 10.219,9.223 10.219,8 C10.219,6.777 9.224,5.781 8,5.781 z M8,6.448 C8.861,6.448 9.552,7.137 9.552,8 C9.552,8.861 8.861,9.552 8,9.552 C7.14,9.552 6.449,8.862 6.449,8 C6.449,7.137 7.14,6.448 8,6.448 z" fill="#FFFFFF" opacity="0.05"/>
    <path d="M6.989,0.333 C6.518,0.333 6.135,0.729 6.135,1.197 L6.135,2.01 C5.766,2.127 5.409,2.27 5.071,2.448 L4.511,1.875 C4.511,1.872 4.511,1.868 4.511,1.865 C4.18,1.535 3.625,1.522 3.291,1.855 L1.854,3.291 C1.521,3.624 1.535,4.181 1.864,4.51 C1.867,4.51 1.871,4.51 1.874,4.51 L2.449,5.072 C2.271,5.408 2.128,5.765 2.011,6.136 L1.197,6.136 C0.728,6.136 0.333,6.517 0.333,6.99 L0.333,9.01 C0.333,9.482 0.729,9.865 1.197,9.865 L2.011,9.865 C2.128,10.235 2.271,10.593 2.449,10.927 L1.875,11.491 C1.872,11.491 1.868,11.491 1.865,11.491 C1.536,11.82 1.522,12.376 1.855,12.709 L3.292,14.146 C3.466,14.32 3.696,14.389 3.906,14.386 C4.125,14.384 4.35,14.298 4.511,14.136 C4.511,14.133 4.511,14.128 4.511,14.124 L5.072,13.553 C5.409,13.729 5.766,13.872 6.136,13.989 L6.136,14.801 C6.136,15.272 6.519,15.667 6.99,15.667 L9.01,15.667 C9.483,15.667 9.865,15.271 9.865,14.801 L9.865,13.989 C10.235,13.872 10.591,13.729 10.929,13.553 L11.491,14.124 C11.491,14.127 11.491,14.132 11.491,14.136 C11.82,14.465 12.376,14.479 12.709,14.146 L14.148,12.709 C14.48,12.376 14.467,11.819 14.136,11.491 C14.133,11.491 14.129,11.491 14.126,11.491 L13.552,10.927 C13.731,10.594 13.874,10.235 13.99,9.865 L14.804,9.865 C15.273,9.865 15.668,9.482 15.668,9.01 L15.668,6.99 C15.668,6.518 15.273,6.136 14.804,6.136 L13.99,6.136 C13.874,5.766 13.731,5.409 13.551,5.073 L14.125,4.511 C14.128,4.511 14.132,4.511 14.135,4.511 C14.466,4.182 14.478,3.625 14.148,3.292 L12.709,1.854 C12.376,1.521 11.819,1.535 11.491,1.864 C11.491,1.867 11.491,1.871 11.491,1.874 L10.929,2.447 C10.592,2.269 10.235,2.126 9.865,2.01 L9.865,1.197 C9.865,0.728 9.484,0.333 9.01,0.333 L6.989,0.333 L6.989,0.333 z M6.989,0.666 L9.009,0.666 C9.299,0.666 9.53,0.904 9.53,1.197 L9.53,2.229 C10.046,2.366 10.549,2.581 11,2.843 L11.73,2.104 C11.938,1.896 12.266,1.89 12.468,2.093 L13.907,3.531 C14.111,3.736 14.104,4.063 13.895,4.271 L13.155,5 C13.418,5.451 13.631,5.952 13.771,6.468 L14.802,6.468 C15.095,6.468 15.333,6.701 15.333,6.989 L15.333,9.009 C15.333,9.299 15.095,9.532 14.802,9.532 L13.771,9.532 C13.631,10.048 13.417,10.55 13.155,11 L13.895,11.728 C14.104,11.935 14.11,12.264 13.907,12.468 L12.468,13.907 C12.264,14.111 11.938,14.104 11.73,13.897 L11,13.155 C10.549,13.418 10.046,13.633 9.53,13.769 L9.53,14.8 C9.53,15.095 9.299,15.333 9.009,15.333 L6.989,15.333 C6.701,15.333 6.468,15.095 6.468,14.8 L6.468,13.769 C5.952,13.633 5.452,13.417 5,13.155 L4.27,13.897 C4.167,14 4.04,14.05 3.906,14.051 C3.771,14.053 3.633,14.008 3.531,13.906 L2.092,12.467 C1.888,12.263 1.897,11.934 2.104,11.727 L2.843,11 C2.582,10.55 2.369,10.048 2.229,9.532 L1.198,9.532 C0.905,9.532 0.669,9.299 0.669,9.009 L0.669,6.989 C0.669,6.701 0.906,6.468 1.198,6.468 L2.229,6.468 C2.369,5.953 2.582,5.451 2.843,5 L2.105,4.271 C1.898,4.063 1.89,3.736 2.093,3.531 L3.532,2.093 C3.736,1.89 4.065,1.896 4.27,2.104 L5,2.843 C5.452,2.58 5.952,2.366 6.468,2.229 L6.468,1.197 C6.468,0.904 6.701,0.666 6.989,0.666 z M8,5.781 C6.777,5.781 5.782,6.777 5.782,8 C5.782,9.223 6.777,10.22 8,10.22 C9.223,10.22 10.219,9.223 10.219,8 C10.219,6.777 9.223,5.781 8,5.781 z M8,6.114 C9.044,6.114 9.886,6.956 9.886,8 C9.886,9.042 9.044,9.886 8,9.886 C6.956,9.886 6.116,9.042 6.116,8 C6.116,6.956 6.956,6.114 8,6.114 z" fill="#FFFFFF" opacity="0.1"/>
    <path d="M6.988,15.334 C6.7,15.334 6.465,15.094 6.465,14.799 L6.465,13.765 C5.951,13.629 5.456,13.42 5.005,13.158 L4.268,13.895 C4.164,13.997 4.041,14.052 3.906,14.053 C3.773,14.055 3.637,14.007 3.533,13.903 L2.094,12.464 C1.89,12.262 1.897,11.936 2.106,11.729 L2.841,10.994 C2.578,10.544 2.372,10.05 2.232,9.534 L1.2,9.534 C0.907,9.534 0.669,9.301 0.669,9.011 L0.669,6.988 C0.669,6.698 0.907,6.467 1.2,6.467 L2.235,6.467 C2.375,5.95 2.58,5.457 2.844,5.006 L2.108,4.27 C1.899,4.062 1.892,3.739 2.096,3.535 L3.535,2.096 C3.74,1.892 4.064,1.9 4.269,2.107 L5.006,2.843 C5.456,2.58 5.951,2.372 6.466,2.235 L6.466,1.2 C6.466,0.906 6.701,0.666 6.989,0.666 L9.014,0.666 C9.302,0.666 9.536,0.906 9.536,1.2 L9.536,2.235 C10.053,2.372 10.546,2.58 10.995,2.843 L11.733,2.107 C11.94,1.9 12.264,1.892 12.468,2.096 L13.907,3.535 C14.111,3.739 14.104,4.062 13.897,4.27 L13.16,5.006 C13.423,5.457 13.631,5.95 13.769,6.467 L14.804,6.467 C15.097,6.467 15.337,6.698 15.337,6.988 L15.337,9.013 C15.337,9.303 15.097,9.536 14.804,9.536 L13.769,9.536 C13.631,10.052 13.424,10.545 13.16,10.996 L13.897,11.731 C14.104,11.938 14.111,12.264 13.907,12.466 L12.468,13.905 C12.264,14.112 11.94,14.104 11.733,13.897 L10.995,13.16 C10.546,13.422 10.053,13.631 9.536,13.767 L9.536,14.802 C9.536,15.097 9.302,15.337 9.014,15.337 L6.988,15.334 L6.988,15.334 z M8.001,10.218 C9.224,10.218 10.218,9.223 10.218,8 C10.218,6.777 9.223,5.782 8.001,5.782 C6.778,5.782 5.785,6.777 5.785,8 C5.785,9.223 6.778,10.218 8.001,10.218 z" fill="#2E2E2E"/>
  </g>
  <defs/>
</svg>
