<?xml version="1.0" encoding="utf-8"?>
<!-- Generator: Adobe Illustrator 17.0.0, SVG Export Plug-In . SVG Version: 6.00 Build 0)  -->
<!DOCTYPE svg PUBLIC "-//W3C//DTD SVG 1.1//EN" "http://www.w3.org/Graphics/SVG/1.1/DTD/svg11.dtd">
<svg version="1.1" id="图层_1" xmlns="http://www.w3.org/2000/svg" xmlns:xlink="http://www.w3.org/1999/xlink" x="0px" y="0px"
	 width="16px" height="16px" viewBox="16 2.5 16 16" enable-background="new 16 2.5 16 16" xml:space="preserve">
<path fill="#3C3C3C" d="M29.44,2.498H18.56C17.147,2.498,16,3.645,16,5.058v10.88c0,1.414,1.147,2.56,2.561,2.56H29.44
	c1.415,0,2.561-1.146,2.561-2.56V5.059C32,3.646,30.854,2.498,29.44,2.498z M31.04,15.939c0,0.883-0.716,1.601-1.6,1.601h-7.864
	c1.368-0.709,4.192-2.354,5.798-4.608c0,0,2.288-3.262-1.361-6.44c0,0,0.939,1.474,0.972,2.96c0,0,0.233,1.965-1.494,3.174
	c-1.726,1.211-3.237,1.078-5.226,1.042c-1.591-0.028-2.857-0.511-3.302-0.704V5.058c0-0.636,0.376-1.182,0.915-1.44
	c0.137,3.203,1.479,5.958,2.331,6.876c0.872,0.939,2.157,1.934,3.801,1.519c1.643-0.415,1.973-2.215,1.973-2.215
	c0.36-1.536-0.161-3.357-0.188-3.396c-0.027-0.037-0.275-0.081-0.275-0.081c0.262,2.415-0.367,3.486-0.367,3.486
	c-0.917,1.896-2.273,1.311-2.273,1.311c-1.507-0.767-1.441-2.935-1.441-2.935c-0.074-2.261,1.078-4.355,1.293-4.726h3.807
	c-0.782,0.532-2.335,2.076-2.335,2.076c-2.213,2.064-1.779,3.799-1.779,3.799c0.359,1.821,1.453,0.592,1.453,0.592
	c1.154-1.2,1.064-3.587,1.064-3.587c-0.469,0.077-0.763,0.337-0.763,0.337c-0.055,1.592-0.988,2.579-0.988,2.579
	c-0.364,0.403-0.623,0.019-0.623,0.019c-0.192-0.288,0.19-0.488,0.19-0.488c0.534-0.471,0.693-1.271,0.684-1.573
	c-0.007-0.301,0.152-0.384,0.152-0.384c0.754-0.586,1.509-0.931,1.509-0.931c1.012-0.52,2.819-0.608,2.819-0.608
	c1.139,0.038,2.161-0.146,2.161-0.146l0.95-0.17c0,0.029,0.007,0.056,0.007,0.084L31.04,15.939L31.04,15.939z"/>
</svg>
