<?xml version="1.0" encoding="utf-8"?>
<!-- Generator: Adobe Illustrator 17.0.0, SVG Export Plug-In . SVG Version: 6.00 Build 0)  -->
<!DOCTYPE svg PUBLIC "-//W3C//DTD SVG 1.1//EN" "http://www.w3.org/Graphics/SVG/1.1/DTD/svg11.dtd">
<svg version="1.1" id="图层_1" xmlns="http://www.w3.org/2000/svg" xmlns:xlink="http://www.w3.org/1999/xlink" x="0px" y="0px"
	 width="16px" height="16px" viewBox="16 16 16 16" enable-background="new 16 16 16 16" xml:space="preserve">
<path fill="#3C3C3C" d="M20.848,16.681l-4.787,2.914l3.243,2.74l4.7-2.896l4.717,2.905l-4.717,2.905l3.243,2.749L32,24.962
	l-3.252-2.619l3.226-2.74l-4.787-2.905L24.03,19.42L20.848,16.681L20.848,16.681z M19.269,22.335L16,24.962l4.761,3.035l3.235-2.749
	C23.996,25.248,19.269,22.335,19.269,22.335z M23.996,25.804l-3.235,2.749l-1.422-0.911v0.417l4.683,3.261l4.735-3.261V27.59
	l-1.509,0.963L23.996,25.804z"/>
</svg>
