<?xml version="1.0" encoding="utf-8"?>
<!-- Generator: Adobe Illustrator 17.0.0, SVG Export Plug-In . SVG Version: 6.00 Build 0)  -->
<!DOCTYPE svg PUBLIC "-//W3C//DTD SVG 1.1//EN" "http://www.w3.org/Graphics/SVG/1.1/DTD/svg11.dtd">
<svg version="1.1" id="图层_1" xmlns="http://www.w3.org/2000/svg" xmlns:xlink="http://www.w3.org/1999/xlink" x="0px" y="0px"
	 width="16px" height="16px" viewBox="16 16 16 16" enable-background="new 16 16 16 16" xml:space="preserve">
<path opacity="0.5" fill="#669CCC" enable-background="new    " d="M23.702,16.593c-0.164,0-0.296,0.132-0.296,0.296v2.177
	c-0.691,0.244-1.186,0.902-1.186,1.676c0,0.381,0.121,0.73,0.324,1.019l-0.759,2.538h-1.343c-0.165,0-0.297,0.132-0.297,0.296
	c0,0.165,0.133,0.297,0.297,0.297h1.167l-0.657,2.204c-0.657,2.203-0.676,4.129-0.046,4.316l1.944-6.52h2.306l1.945,6.52
	c0.629-0.187,0.61-2.113-0.046-4.316l-0.657-2.204h1.157c0.165,0,0.296-0.133,0.296-0.297s-0.131-0.296-0.296-0.296h-1.334
	l-0.76-2.547c0.198-0.287,0.316-0.634,0.316-1.01c0-0.774-0.494-1.432-1.186-1.676v-2.177c0-0.164-0.133-0.296-0.297-0.296H23.702z
	 M23.999,19.556c0.655,0,1.186,0.531,1.186,1.186c0,0.096-0.015,0.19-0.038,0.278c-0.013,0.057-0.024,0.114-0.045,0.167
	c-0.019,0.048-0.049,0.094-0.075,0.138c-0.001,0.004-0.007,0.006-0.01,0.01c-0.025,0.043-0.052,0.09-0.083,0.13
	c-0.032,0.043-0.063,0.082-0.102,0.12c-0.038,0.038-0.086,0.071-0.13,0.103c-0.087,0.064-0.185,0.118-0.287,0.157
	c-0.052,0.019-0.103,0.035-0.158,0.045c-0.083,0.019-0.17,0.038-0.259,0.038c-0.086,0-0.17-0.012-0.251-0.028
	c-0.074-0.015-0.145-0.037-0.213-0.065c-0.007-0.003-0.013-0.007-0.018-0.01c-0.053-0.023-0.108-0.052-0.158-0.083
	c-0.018-0.012-0.038-0.024-0.056-0.037c-0.013-0.01-0.024-0.018-0.037-0.028c-0.032-0.026-0.062-0.054-0.093-0.083
	c-0.038-0.038-0.077-0.087-0.11-0.13c-0.015-0.019-0.032-0.035-0.046-0.056c-0.009-0.012-0.013-0.025-0.018-0.037
	c-0.01-0.014-0.021-0.023-0.028-0.037c-0.03-0.05-0.053-0.105-0.075-0.158c-0.019-0.052-0.034-0.103-0.046-0.158
	c-0.021-0.089-0.037-0.182-0.037-0.278C22.814,20.088,23.345,19.556,23.999,19.556z M23.583,22.464
	c0.134,0.032,0.273,0.056,0.417,0.056c0.149,0,0.296-0.021,0.435-0.056l0.546,1.834h-1.944L23.583,22.464z"/>
<path fill="#3C3C3C" d="M23.702,16.593c-0.164,0-0.296,0.132-0.296,0.296v2.177c-0.691,0.244-1.186,0.902-1.186,1.676
	c0,0.381,0.121,0.73,0.324,1.019l-0.759,2.538h-1.343c-0.165,0-0.297,0.132-0.297,0.296c0,0.165,0.133,0.297,0.297,0.297h1.167
	l-0.657,2.204c-0.657,2.203-0.676,4.129-0.046,4.316l1.944-6.52h2.306l1.945,6.52c0.629-0.187,0.61-2.113-0.046-4.316l-0.657-2.204
	h1.157c0.165,0,0.296-0.133,0.296-0.297s-0.131-0.296-0.296-0.296h-1.334l-0.76-2.547c0.198-0.287,0.316-0.634,0.316-1.01
	c0-0.774-0.494-1.432-1.186-1.676v-2.177c0-0.164-0.133-0.296-0.297-0.296H23.702z M23.999,19.556c0.655,0,1.186,0.531,1.186,1.186
	c0,0.096-0.015,0.19-0.038,0.278c-0.013,0.057-0.024,0.114-0.045,0.167c-0.019,0.048-0.049,0.094-0.075,0.138
	c-0.001,0.004-0.007,0.006-0.01,0.01c-0.025,0.043-0.052,0.09-0.083,0.13c-0.032,0.043-0.063,0.082-0.102,0.12
	c-0.038,0.038-0.086,0.071-0.13,0.103c-0.087,0.064-0.185,0.118-0.287,0.157c-0.052,0.019-0.103,0.035-0.158,0.045
	c-0.083,0.019-0.17,0.038-0.259,0.038c-0.086,0-0.17-0.012-0.251-0.028c-0.074-0.015-0.145-0.037-0.213-0.065
	c-0.007-0.003-0.013-0.007-0.018-0.01c-0.053-0.023-0.108-0.052-0.158-0.083c-0.018-0.012-0.038-0.024-0.056-0.037
	c-0.013-0.01-0.024-0.018-0.037-0.028c-0.032-0.026-0.062-0.054-0.093-0.083c-0.038-0.038-0.077-0.087-0.11-0.13
	c-0.015-0.019-0.032-0.035-0.046-0.056c-0.009-0.012-0.013-0.025-0.018-0.037c-0.01-0.014-0.021-0.023-0.028-0.037
	c-0.03-0.05-0.053-0.105-0.075-0.158c-0.019-0.052-0.034-0.103-0.046-0.158c-0.021-0.089-0.037-0.182-0.037-0.278
	C22.814,20.088,23.345,19.556,23.999,19.556z M24.98,22.205l0.018,0.056c-0.009-0.016-0.018-0.031-0.028-0.046
	C24.975,22.212,24.977,22.207,24.98,22.205z M23.583,22.464c0.134,0.032,0.273,0.056,0.417,0.056c0.149,0,0.296-0.021,0.435-0.056
	l0.546,1.834h-1.944L23.583,22.464z"/>
</svg>
