<?xml version="1.0" encoding="utf-8"?>
<!-- Generator: Adobe Illustrator 17.1.0, SVG Export Plug-In . SVG Version: 6.00 Build 0)  -->
<!DOCTYPE svg PUBLIC "-//W3C//DTD SVG 1.1//EN" "http://www.w3.org/Graphics/SVG/1.1/DTD/svg11.dtd">
<svg version="1.1" id="图层_1" xmlns="http://www.w3.org/2000/svg" xmlns:xlink="http://www.w3.org/1999/xlink" x="0px" y="0px"
	 viewBox="0 0 48 48" enable-background="new 0 0 48 48" xml:space="preserve">
<linearGradient id="SVGID_1_" gradientUnits="userSpaceOnUse" x1="24" y1="13" x2="24" y2="46">
	<stop  offset="0" style="stop-color:#FFFFFF"/>
	<stop  offset="1" style="stop-color:#A9CFDF"/>
</linearGradient>
<path fill="url(#SVGID_1_)" d="M2,13v26.4C2,43,5,46,8.6,46h30.8c3.6,0,6.6-3,6.6-6.6V13H2z"/>
<path fill="#036EB8" d="M46,13V8.6C46,5,43,2,39.4,2H8.6C5,2,2,5,2,8.6V13H46z"/>
<circle fill="#FFFFFF" cx="42" cy="8" r="1"/>
<circle fill="#FFFFFF" cx="39" cy="8" r="1"/>
<circle fill="#FFFFFF" cx="36" cy="8" r="1"/>
<g opacity="0.4">
	<defs>
		<path id="SVGID_2_" opacity="0.4" d="M2,13v26.4C2,43,5,46,8.6,46h30.8c3.6,0,6.6-3,6.6-6.6V13H2z"/>
	</defs>
	<clipPath id="SVGID_3_">
		<use xlink:href="#SVGID_2_"  overflow="visible"/>
	</clipPath>
	<linearGradient id="SVGID_4_" gradientUnits="userSpaceOnUse" x1="23.2316" y1="9.825" x2="23.4382" y2="53.0433">
		<stop  offset="0" style="stop-color:#22E1FD"/>
		<stop  offset="0.9662" style="stop-color:#0B53B6"/>
	</linearGradient>
	<path clip-path="url(#SVGID_3_)" fill="url(#SVGID_4_)" d="M27.3,12.4c-2,1.8-5.4,5.2-5.4,5.2c-6.2,5.8-5,10.6-5,10.6
		c1,5.1,4.1,1.7,4.1,1.7c3.3-3.4,3-10.1,3-10.1c-1.3,0.2-2.1,0.9-2.1,0.9C21.6,25.2,19,28,19,28c-1,1.1-1.7,0.1-1.7,0.1
		c-0.5-0.8,0.5-1.4,0.5-1.4c1.5-1.3,2-3.6,1.9-4.4c0-0.8,0.4-1.1,0.4-1.1c5-4.2,12.2-4.3,12.2-4.3c11.1,0,13.6-4.5,13.6-4.5
		C42.8,12.4,27.3,12.4,27.3,12.4z M3.9,12.3c0.9,7.9,4.5,16.8,6.7,19.2c2.4,2.6,6,5.4,10.7,4.3c4.6-1.2,5.6-6.2,5.6-6.2
		c1-4.3-0.4-9.4-0.5-9.5c-0.1-0.1-0.8-0.2-0.8-0.2c0.7,6.8-1.1,9.8-1.1,9.8c-2.6,5.3-6.4,3.7-6.4,3.7c-4.2-2.2-4-8.2-4-8.2
		c-0.1-4.5,1.6-10.2,2.8-12.7C16.9,12.3,5.1,12.3,3.9,12.3z M26.9,20.3c0,0,7.1,10.9-1.5,17.2c-9,6.6-23,2.1-24.7,1.5v7.3
		c0,2.2,2.1,4.3,4.2,4.3h11.9C22,50.5,43,36.1,26.9,20.3z"/>
</g>
<path id="gear-icon_18_" fill="#036EB8" d="M43.7,36.9v-2.2l-1.2-0.4c-0.4-0.2-0.8-0.5-1-0.9v0c-0.2-0.4-0.2-0.9,0-1.4l0.5-1.1
	l-1.5-1.5l-1.1,0.5c-0.4,0.2-0.9,0.2-1.4,0h0c-0.4-0.2-0.8-0.5-0.9-1l-0.4-1.2h-2.2L34.2,29c-0.2,0.4-0.5,0.8-0.9,1h0
	c-0.4,0.2-0.9,0.2-1.4,0l-1.1-0.5l-1.5,1.5l0.5,1.1c0.2,0.4,0.2,0.9,0,1.4v0c-0.2,0.4-0.5,0.8-1,0.9l-1.2,0.4v2.2l1.2,0.4
	c0.4,0.2,0.8,0.5,1,0.9v0c0.2,0.4,0.2,0.9,0,1.4l-0.5,1.1l1.5,1.5l1.1-0.5c0.4-0.2,0.9-0.2,1.4,0h0c0.4,0.2,0.8,0.5,0.9,1l0.4,1.2
	h2.2l0.4-1.2c0.2-0.4,0.5-0.8,0.9-1l0,0c0.4-0.2,0.9-0.2,1.3,0l1.1,0.5l1.5-1.5l-0.5-1.1c-0.2-0.4-0.2-0.9,0-1.4v0
	c0.2-0.4,0.5-0.8,1-0.9L43.7,36.9z M35.7,38.8c-1.6,0-2.9-1.3-2.9-2.9c0-1.6,1.3-2.9,2.9-2.9c1.6,0,2.9,1.3,2.9,2.9
	C38.6,37.5,37.3,38.8,35.7,38.8z"/>
</svg>
