<?xml version="1.0" encoding="UTF-8" standalone="no"?>
<!-- Created with Inkscape (http://www.inkscape.org/) -->

<svg
   xmlns:dc="http://purl.org/dc/elements/1.1/"
   xmlns:cc="http://creativecommons.org/ns#"
   xmlns:rdf="http://www.w3.org/1999/02/22-rdf-syntax-ns#"
   xmlns:svg="http://www.w3.org/2000/svg"
   xmlns="http://www.w3.org/2000/svg"
   xmlns:xlink="http://www.w3.org/1999/xlink"
   xmlns:sodipodi="http://sodipodi.sourceforge.net/DTD/sodipodi-0.dtd"
   xmlns:inkscape="http://www.inkscape.org/namespaces/inkscape"
   version="1.0"
   width="96"
   height="96"
   id="svg2408"
   inkscape:version="0.48.0 r9654"
   sodipodi:docname="address-book-new.svg">
  <metadata
     id="metadata3919">
    <rdf:RDF>
      <cc:Work
         rdf:about="">
        <dc:format>image/svg+xml</dc:format>
        <dc:type
           rdf:resource="http://purl.org/dc/dcmitype/StillImage" />
        <dc:title></dc:title>
      </cc:Work>
    </rdf:RDF>
  </metadata>
  <sodipodi:namedview
     pagecolor="#ffffff"
     bordercolor="#666666"
     borderopacity="1"
     objecttolerance="10"
     gridtolerance="10"
     guidetolerance="10"
     inkscape:pageopacity="0"
     inkscape:pageshadow="2"
     inkscape:window-width="1280"
     inkscape:window-height="776"
     id="namedview3917"
     showgrid="false"
     inkscape:zoom="0.3973919"
     inkscape:cx="48"
     inkscape:cy="46.5"
     inkscape:window-x="0"
     inkscape:window-y="24"
     inkscape:window-maximized="1"
     inkscape:current-layer="svg2408" />
  <defs
     id="defs2410">
    <linearGradient
       id="linearGradient3778">
      <stop
         id="stop3780"
         style="stop-color:#000000;stop-opacity:1"
         offset="0" />
      <stop
         id="stop3786"
         style="stop-color:#000000;stop-opacity:0"
         offset="0.5" />
      <stop
         id="stop3782"
         style="stop-color:#ffffff;stop-opacity:1"
         offset="1" />
    </linearGradient>
    <linearGradient
       id="linearGradient3761">
      <stop
         id="stop3763"
         style="stop-color:#000000;stop-opacity:1"
         offset="0" />
      <stop
         id="stop3769"
         style="stop-color:#000000;stop-opacity:0.19379845"
         offset="0.5" />
      <stop
         id="stop3765"
         style="stop-color:#000000;stop-opacity:0"
         offset="1" />
    </linearGradient>
    <linearGradient
       id="linearGradient3745">
      <stop
         id="stop3747"
         style="stop-color:#8a8a8a;stop-opacity:1"
         offset="0" />
      <stop
         id="stop3753"
         style="stop-color:#d5d5d5;stop-opacity:1"
         offset="0.40964222" />
      <stop
         id="stop3755"
         style="stop-color:#6f6f6f;stop-opacity:1"
         offset="0.72741055" />
      <stop
         id="stop3749"
         style="stop-color:#373737;stop-opacity:1"
         offset="1" />
    </linearGradient>
    <linearGradient
       id="linearGradient3640">
      <stop
         id="stop3642"
         style="stop-color:#1a1a1a;stop-opacity:1"
         offset="0" />
      <stop
         id="stop3644"
         style="stop-color:#2a2a2a;stop-opacity:1"
         offset="1" />
    </linearGradient>
    <linearGradient
       id="linearGradient3627">
      <stop
         id="stop3629"
         style="stop-color:#5f101a;stop-opacity:1"
         offset="0" />
      <stop
         id="stop3631"
         style="stop-color:#811524;stop-opacity:1"
         offset="1" />
    </linearGradient>
    <linearGradient
       x1="45.447727"
       y1="92.539597"
       x2="45.447727"
       y2="7.0165396"
       id="ButtonShadow"
       gradientUnits="userSpaceOnUse"
       gradientTransform="scale(1.0058652,0.994169)">
      <stop
         id="stop3750"
         style="stop-color:#000000;stop-opacity:1"
         offset="0" />
      <stop
         id="stop3752"
         style="stop-color:#000000;stop-opacity:0.58823532"
         offset="1" />
    </linearGradient>
    <linearGradient
       id="linearGradient3737">
      <stop
         id="stop3739"
         style="stop-color:#ffffff;stop-opacity:1"
         offset="0" />
      <stop
         id="stop3741"
         style="stop-color:#ffffff;stop-opacity:0"
         offset="1" />
    </linearGradient>
    <filter
       color-interpolation-filters="sRGB"
       id="filter3174">
      <feGaussianBlur
         id="feGaussianBlur3176"
         stdDeviation="1.71" />
    </filter>
    <linearGradient
       x1="36.357143"
       y1="6"
       x2="36.357143"
       y2="63.893143"
       id="linearGradient3188"
       xlink:href="#linearGradient3737"
       gradientUnits="userSpaceOnUse" />
    <filter
       x="-0.192"
       y="-0.192"
       width="1.3839999"
       height="1.3839999"
       color-interpolation-filters="sRGB"
       id="filter3794">
      <feGaussianBlur
         id="feGaussianBlur3796"
         stdDeviation="5.28" />
    </filter>
    <linearGradient
       x1="48"
       y1="20.220806"
       x2="48"
       y2="138.66119"
       id="linearGradient3613"
       xlink:href="#linearGradient3737"
       gradientUnits="userSpaceOnUse" />
    <radialGradient
       cx="48"
       cy="90.171875"
       r="42"
       fx="48"
       fy="90.171875"
       id="radialGradient3619"
       xlink:href="#linearGradient3737"
       gradientUnits="userSpaceOnUse"
       gradientTransform="matrix(1.1573129,0,0,0.99590774,-7.5510206,0.19713193)" />
    <clipPath
       id="clipPath3613">
      <rect
         width="84"
         height="84"
         rx="6"
         ry="6"
         x="6"
         y="6"
         id="rect3615"
         style="fill:#ffffff;fill-opacity:1;fill-rule:nonzero;stroke:none" />
    </clipPath>
    <linearGradient
       x1="54.75"
       y1="90"
       x2="54.75"
       y2="5.9794726"
       id="linearGradient3633"
       xlink:href="#linearGradient3627"
       gradientUnits="userSpaceOnUse" />
    <linearGradient
       x1="16"
       y1="88"
       x2="16"
       y2="8"
       id="linearGradient3646"
       xlink:href="#linearGradient3640"
       gradientUnits="userSpaceOnUse" />
    <clipPath
       id="clipPath3674">
      <g
         transform="translate(0,-0.500001)"
         id="g3676"
         style="font-size:44.84671402px;font-style:normal;font-variant:normal;font-weight:normal;font-stretch:normal;text-align:start;line-height:125%;writing-mode:lr-tb;text-anchor:start;fill:#ffffff;fill-opacity:1;stroke:none;font-family:Droid Sans;-inkscape-font-specification:Abandoned Bitplane">
        <path
           d="m 73.036498,46.0073 c -3.7e-5,0.905125 -0.07303,1.817532 -0.218978,2.737226 -0.131423,0.905122 -0.335803,1.773734 -0.613139,2.60584 -0.262809,0.817528 -0.605874,1.58395 -1.029197,2.29927 -0.408793,0.700737 -0.890545,1.313875 -1.445255,1.839416 -0.554778,0.525553 -1.189813,0.941611 -1.90511,1.248175 -0.70076,0.291976 -1.474482,0.437961 -2.321168,0.437956 -0.656962,5e-6 -1.255502,-0.109484 -1.79562,-0.328467 -0.525574,-0.218973 -0.978128,-0.510943 -1.357664,-0.875913 -0.379588,-0.364957 -0.693456,-0.781015 -0.941606,-1.248175 -0.233601,-0.481744 -0.394185,-0.978094 -0.481752,-1.489051 l -0.08759,0 c -0.262798,0.540154 -0.591265,1.051103 -0.985402,1.532847 -0.394183,0.481758 -0.854037,0.905116 -1.379562,1.270073 -0.51097,0.35037 -1.094911,0.627742 -1.751824,0.832117 -0.642356,0.204384 -1.350384,0.306574 -2.124088,0.306569 -1.124104,5e-6 -2.124103,-0.204375 -3,-0.613139 -0.861328,-0.408753 -1.591254,-0.978095 -2.189781,-1.708029 -0.598552,-0.744518 -1.058406,-1.635028 -1.379562,-2.671533 -0.30658,-1.036485 -0.459865,-2.182469 -0.459854,-3.437956 -1.1e-5,-1.474438 0.211668,-2.824801 0.635037,-4.051095 0.437944,-1.226258 1.058381,-2.284651 1.861314,-3.175182 C 50.8832,40.62776 51.8686,39.93433 53.0219,39.437957 c 1.153267,-0.496327 2.445236,-0.744502 3.875912,-0.744525 0.656913,2.3e-5 1.313847,0.02922 1.970803,0.08759 0.656911,0.05842 1.284648,0.138709 1.883212,0.240876 0.598515,0.102212 1.14596,0.219001 1.642335,0.350365 0.510923,0.116811 0.93428,0.233599 1.270073,0.350365 l -0.503649,9.109488 c -0.01463,0.321181 -0.02922,0.583955 -0.0438,0.788322 -2.6e-5,0.189793 -2.6e-5,0.343077 0,0.459854 -2.6e-5,0.1168 -2.6e-5,0.204391 0,0.262773 -2.6e-5,0.05841 -2.6e-5,0.109501 0,0.153285 -2.6e-5,0.773733 0.07297,1.408769 0.218978,1.905109 0.160557,0.49636 0.364937,0.89052 0.613139,1.182482 0.248147,0.291979 0.525519,0.496358 0.832117,0.613139 0.321139,0.102197 0.649606,0.153292 0.985401,0.153284 0.671503,8e-6 1.262743,-0.21897 1.773723,-0.656934 0.510917,-0.452546 0.934274,-1.058385 1.270073,-1.817518 0.350332,-0.759113 0.613105,-1.649623 0.788321,-2.671533 0.175149,-1.021884 0.26274,-2.102175 0.262773,-3.240876 -3.3e-5,-2.072974 -0.313901,-3.912388 -0.941605,-5.518248 -0.627769,-1.620414 -1.496382,-2.985376 -2.60584,-4.09489 -1.109517,-1.109462 -2.430684,-1.948877 -3.963503,-2.518248 -1.518273,-0.583913 -3.175205,-0.875883 -4.970803,-0.875912 -2.467172,2.9e-5 -4.642352,0.408787 -6.525547,1.226277 -1.883224,0.802947 -3.467164,1.934332 -4.751825,3.39416 -1.270081,1.445279 -2.233584,3.167905 -2.890511,5.167883 -0.65694,1.985419 -0.985407,4.160599 -0.985401,6.525548 -6e-6,2.20439 0.284665,4.160592 0.854014,5.868613 0.583935,1.708034 1.430649,3.145989 2.540146,4.313868 1.124078,1.167885 2.510938,2.051095 4.160584,2.649635 1.664219,0.59854 3.569326,0.897809 5.715328,0.89781 0.890491,-1e-6 1.766403,-0.0511 2.627738,-0.153284 0.875889,-0.102191 1.715305,-0.240877 2.518248,-0.416059 0.817493,-0.175182 1.591215,-0.372263 2.321167,-0.591241 0.7299,-0.233576 1.408732,-0.474452 2.036497,-0.722627 l 0,3.087591 c -1.255502,0.554742 -2.671559,0.992697 -4.248175,1.313868 -1.576665,0.321164 -3.31389,0.481748 -5.211679,0.481752 -2.613155,-4e-6 -4.948919,-0.372266 -7.007299,-1.116788 -2.043806,-0.744528 -3.78103,-1.824819 -5.211679,-3.240876 -1.416063,-1.430655 -2.496354,-3.167879 -3.240876,-5.211679 -0.744528,-2.058386 -1.11679,-4.39415 -1.116788,-7.007299 -2e-6,-2.74451 0.430654,-5.299252 1.291971,-7.664233 0.861309,-2.379539 2.087585,-4.437931 3.678832,-6.175182 1.60583,-1.737198 3.540135,-3.10216 5.802919,-4.094891 2.277357,-0.992669 4.8248,-1.489019 7.642336,-1.489051 2.277349,3.2e-5 4.372237,0.372295 6.284671,1.116789 1.91238,0.729957 3.562013,1.78835 4.948905,3.175182 1.401427,1.372289 2.489017,3.051119 3.262774,5.036496 0.773686,1.970824 1.160547,4.197099 1.160584,6.678832 m -21.963503,2.824817 c -1.5e-5,1.941618 0.364948,3.350375 1.09489,4.226278 0.74451,0.861322 1.737209,1.291978 2.978102,1.29197 0.802901,8e-6 1.489031,-0.160576 2.058395,-0.481751 0.569321,-0.335758 1.036474,-0.802911 1.401459,-1.40146 0.364941,-0.613129 0.642313,-1.335756 0.832117,-2.167883 0.189758,-0.846703 0.313846,-1.773709 0.372263,-2.781022 l 0.306569,-5.540146 c -0.408782,-0.116768 -0.897833,-0.218958 -1.467153,-0.306569 -0.554766,-0.10217 -1.138707,-0.153264 -1.751825,-0.153285 -1.080311,2.1e-5 -1.992719,0.211699 -2.737226,0.635037 -0.729944,0.423377 -1.328483,0.978121 -1.79562,1.664233 -0.45257,0.686149 -0.781037,1.46717 -0.985402,2.343066 -0.204394,0.875927 -0.306584,1.766437 -0.306569,2.671532"
           id="path3678" />
      </g>
    </clipPath>
    <clipPath
       id="clipPath3724">
      <path
         d="m 32,24 0,48 48,0 0,-48 -48,0 z m 25.375,6 c 2.277349,3.2e-5 4.368816,0.380506 6.28125,1.125 1.91238,0.729957 3.581858,1.769418 4.96875,3.15625 1.401427,1.372289 2.476243,3.077123 3.25,5.0625 0.773686,1.970824 1.156213,4.174517 1.15625,6.65625 -3.7e-5,0.905125 -0.0728,1.830306 -0.21875,2.75 -0.131423,0.905122 -0.316414,1.761644 -0.59375,2.59375 -0.262809,0.817528 -0.607927,1.59718 -1.03125,2.3125 -0.408793,0.700737 -0.91404,1.318209 -1.46875,1.84375 -0.554778,0.525553 -1.190953,0.943436 -1.90625,1.25 -0.70076,0.291976 -1.465814,0.437505 -2.3125,0.4375 -0.656962,5e-6 -1.241132,-0.124767 -1.78125,-0.34375 -0.525574,-0.218973 -0.995464,-0.51003 -1.375,-0.875 -0.379588,-0.364957 -0.68935,-0.78284 -0.9375,-1.25 -0.233601,-0.481744 -0.381183,-0.989043 -0.46875,-1.5 l -0.09375,0 c -0.262798,0.540154 -0.605863,1.080756 -1,1.5625 -0.394183,0.481758 -0.849475,0.885043 -1.375,1.25 -0.51097,0.35037 -1.093087,0.639375 -1.75,0.84375 -0.642356,0.204384 -1.351296,0.312505 -2.125,0.3125 -1.124104,5e-6 -2.124103,-0.216236 -3,-0.625 -0.861328,-0.408753 -1.588973,-0.988816 -2.1875,-1.71875 -0.598552,-0.744518 -1.053844,-1.619745 -1.375,-2.65625 -0.30658,-1.036485 -0.468761,-2.182013 -0.46875,-3.4375 -1.1e-5,-1.474438 0.232881,-2.836206 0.65625,-4.0625 0.437944,-1.226258 1.040817,-2.265719 1.84375,-3.15625 0.817503,-0.890489 1.81545,-1.597377 2.96875,-2.09375 1.153267,-0.496327 2.444324,-0.749977 3.875,-0.75 0.656913,2.3e-5 1.311794,0.03538 1.96875,0.09375 0.656911,0.05842 1.276436,0.147833 1.875,0.25 0.598515,0.102212 1.159875,0.212386 1.65625,0.34375 0.510923,0.116811 0.914207,0.226984 1.25,0.34375 l -0.5,9.125 c -0.01463,0.321181 -0.01667,0.576883 -0.03125,0.78125 -2.6e-5,0.189793 -2.6e-5,0.351973 0,0.46875 -2.6e-5,0.1168 -2.6e-5,0.191618 0,0.25 -2.6e-5,0.05841 -2.6e-5,0.112466 0,0.15625 -2.6e-5,0.773733 0.07274,1.40991 0.21875,1.90625 0.160557,0.49636 0.345548,0.895538 0.59375,1.1875 0.248147,0.291979 0.537152,0.476969 0.84375,0.59375 0.321139,0.102197 0.664205,0.156258 1,0.15625 0.671503,8e-6 1.23902,-0.218286 1.75,-0.65625 0.510917,-0.452546 0.945451,-1.053367 1.28125,-1.8125 0.350332,-0.759113 0.606034,-1.63434 0.78125,-2.65625 0.175149,-1.021884 0.281217,-2.111299 0.28125,-3.25 -3.3e-5,-2.072974 -0.341046,-3.92539 -0.96875,-5.53125 -0.627769,-1.620414 -1.484292,-2.984236 -2.59375,-4.09375 -1.109517,-1.109462 -2.435931,-1.930629 -3.96875,-2.5 -1.518273,-0.583913 -3.173152,-0.874971 -4.96875,-0.875 -2.467172,2.9e-5 -4.648055,0.40126 -6.53125,1.21875 -1.883224,0.802947 -3.465339,1.915172 -4.75,3.375 -1.270081,1.445279 -2.218073,3.187522 -2.875,5.1875 -0.65694,1.985419 -1.000006,4.166301 -1,6.53125 -6e-6,2.20439 0.305651,4.135729 0.875,5.84375 0.583935,1.708034 1.421753,3.144621 2.53125,4.3125 1.124078,1.16789 2.506604,2.05771 4.15625,2.65625 C 51.445469,62.69229 53.353998,63 55.5,63 c 0.890491,0 1.763665,-0.0541 2.625,-0.15625 0.875889,-0.10219 1.728307,-0.23107 2.53125,-0.40625 0.817493,-0.17519 1.582548,-0.37478 2.3125,-0.59375 C 63.69865,61.61017 64.372235,61.37317 65,61.125 l 0,3.09375 c -1.255502,0.55474 -2.673384,0.99133 -4.25,1.3125 C 59.173335,65.85241 57.429039,66 55.53125,66 c -2.613155,0 -4.94162,-0.38048 -7,-1.125 -2.043806,-0.74453 -3.788101,-1.8027 -5.21875,-3.21875 -1.416063,-1.43066 -2.474228,-3.17495 -3.21875,-5.21875 -0.744528,-2.058386 -1.125002,-4.386851 -1.125,-7 -2e-6,-2.74451 0.419933,-5.322519 1.28125,-7.6875 0.861309,-2.379539 2.096253,-4.418999 3.6875,-6.15625 1.60583,-1.737198 3.549716,-3.101019 5.8125,-4.09375 2.277357,-0.992669 4.807464,-1.499968 7.625,-1.5 z m -0.46875,11.53125 c -1.080311,2.1e-5 -2.005493,0.201662 -2.75,0.625 -0.729944,0.423377 -1.314113,0.970138 -1.78125,1.65625 -0.45257,0.686149 -0.795635,1.467854 -1,2.34375 -0.204394,0.875927 -0.312515,1.782405 -0.3125,2.6875 -1.5e-5,1.941618 0.363808,3.342847 1.09375,4.21875 0.74451,0.861322 1.759107,1.281258 3,1.28125 0.802901,8e-6 1.493136,-0.147575 2.0625,-0.46875 0.569321,-0.335758 1.010015,-0.807701 1.375,-1.40625 0.364941,-0.613129 0.653946,-1.324123 0.84375,-2.15625 0.189758,-0.846703 0.316583,-1.773937 0.375,-2.78125 l 0.3125,-5.5625 c -0.408782,-0.116768 -0.89943,-0.224889 -1.46875,-0.3125 -0.554766,-0.10217 -1.136882,-0.124979 -1.75,-0.125 z"
         id="path3726"
         style="opacity:0.2;fill:#ff00ff;fill-opacity:1;stroke:none" />
    </clipPath>
    <linearGradient
       x1="9"
       y1="22"
       x2="9"
       y2="26"
       id="linearGradient3751"
       xlink:href="#linearGradient3745"
       gradientUnits="userSpaceOnUse" />
    <linearGradient
       x1="4"
       y1="24"
       x2="12"
       y2="24"
       id="linearGradient3767"
       xlink:href="#linearGradient3761"
       gradientUnits="userSpaceOnUse"
       spreadMethod="reflect" />
    <linearGradient
       x1="10"
       y1="24"
       x2="18"
       y2="24"
       id="linearGradient3784"
       xlink:href="#linearGradient3778"
       gradientUnits="userSpaceOnUse"
       gradientTransform="matrix(0,1,1,0,-10,10)" />
    <filter
       color-interpolation-filters="sRGB"
       id="filter3669">
      <feGaussianBlur
         id="feGaussianBlur3671"
         stdDeviation="0.52554746" />
    </filter>
    <linearGradient
       x1="45.447727"
       y1="92.539597"
       x2="45.447727"
       y2="7.0165396"
       id="ButtonShadow-0"
       gradientUnits="userSpaceOnUse"
       gradientTransform="matrix(1.0058652,0,0,0.994169,100,0)">
      <stop
         id="stop3750-8"
         style="stop-color:#000000;stop-opacity:1"
         offset="0" />
      <stop
         id="stop3752-5"
         style="stop-color:#000000;stop-opacity:0.58823532"
         offset="1" />
    </linearGradient>
    <linearGradient
       x1="32.251034"
       y1="6.1317081"
       x2="32.251034"
       y2="90.238609"
       id="linearGradient3780"
       xlink:href="#ButtonShadow-0"
       gradientUnits="userSpaceOnUse"
       gradientTransform="matrix(1.0238095,0,0,1.0119048,-1.1428571,-98.071429)" />
    <linearGradient
       x1="32.251034"
       y1="6.1317081"
       x2="32.251034"
       y2="90.238609"
       id="linearGradient3772"
       xlink:href="#ButtonShadow-0"
       gradientUnits="userSpaceOnUse"
       gradientTransform="matrix(1.0238095,0,0,1.0119048,-1.1428571,-98.071429)" />
    <linearGradient
       x1="32.251034"
       y1="6.1317081"
       x2="32.251034"
       y2="90.238609"
       id="linearGradient3725"
       xlink:href="#ButtonShadow-0"
       gradientUnits="userSpaceOnUse"
       gradientTransform="matrix(1.0238095,0,0,1.0119048,-1.1428571,-98.071429)" />
    <linearGradient
       x1="32.251034"
       y1="6.1317081"
       x2="32.251034"
       y2="90.238609"
       id="linearGradient3721"
       xlink:href="#ButtonShadow-0"
       gradientUnits="userSpaceOnUse"
       gradientTransform="translate(0,-97)" />
    <linearGradient
       x1="32.251034"
       y1="6.1317081"
       x2="32.251034"
       y2="90.238609"
       id="linearGradient3059"
       xlink:href="#ButtonShadow-0"
       gradientUnits="userSpaceOnUse"
       gradientTransform="matrix(1.0238095,0,0,1.0119048,-1.1428571,-98.071429)" />
    <inkscape:perspective
       id="perspective10"
       inkscape:persp3d-origin="372.04724 : 350.78739 : 1"
       inkscape:vp_z="744.09448 : 526.18109 : 1"
       inkscape:vp_y="0 : 1000 : 0"
       inkscape:vp_x="0 : 526.18109 : 1"
       sodipodi:type="inkscape:persp3d" />
    <filter
       id="filter3998"
       inkscape:label="Inner Glow"
       inkscape:menu="Shadows and Glows"
       inkscape:menu-tooltip="Adds a colorizable glow inside"
       color-interpolation-filters="sRGB">
      <feGaussianBlur
         id="feGaussianBlur4000"
         stdDeviation="10"
         result="result8" />
      <feComposite
         id="feComposite4002"
         in2="result8"
         result="result6"
         in="SourceGraphic"
         operator="in" />
      <feComposite
         id="feComposite4004"
         in2="result6"
         operator="in"
         result="result11" />
      <feFlood
         id="feFlood4006"
         result="result10"
         in="result11"
         flood-opacity="1"
         flood-color="rgb(255,222,85)" />
      <feBlend
         id="feBlend4008"
         in2="result10"
         mode="normal"
         in="result11"
         result="result12" />
      <feComposite
         id="feComposite4010"
         in2="SourceGraphic"
         result="result2"
         operator="in"
         in="result12" />
    </filter>
  </defs>
  <g
     id="layer2"
     style="display:none">
    <rect
       width="86"
       height="85"
       rx="6"
       ry="6"
       x="5"
       y="7"
       id="rect3745"
       style="opacity:0.9;fill:url(#ButtonShadow);fill-opacity:1;fill-rule:nonzero;stroke:none;filter:url(#filter3174)" />
  </g>
  <g
     id="layer6"
     style="display:inline">
    <path
       d="m 12,-95.03125 c -5.5110903,0 -10.03125,4.52016 -10.03125,10.03125 l 0,71 c 0,5.5110902 4.5201598,10.03125 10.03125,10.03125 l 72,0 c 5.51109,0 10.03125,-4.5201597 10.03125,-10.03125 l 0,-71 c 0,-5.51109 -4.52016,-10.03125 -10.03125,-10.03125 l -72,0 z"
       transform="scale(1,-1)"
       id="path3786"
       style="opacity:0.07999998;fill:url(#linearGradient3059);fill-opacity:1;fill-rule:nonzero;stroke:none;display:inline" />
    <path
       d="m 12,-94.03125 c -4.971633,0 -9.03125,4.059617 -9.03125,9.03125 l 0,71 c 0,4.9716329 4.0596171,9.03125 9.03125,9.03125 l 72,0 c 4.971633,0 9.03125,-4.059617 9.03125,-9.03125 l 0,-71 c 0,-4.971633 -4.059617,-9.03125 -9.03125,-9.03125 l -72,0 z"
       transform="scale(1,-1)"
       id="path3778"
       style="opacity:0.1;fill:url(#linearGradient3780);fill-opacity:1;fill-rule:nonzero;stroke:none;display:inline" />
    <path
       d="m 12,-93 c -4.4091333,0 -8,3.590867 -8,8 l 0,71 c 0,4.4091333 3.5908667,8 8,8 l 72,0 c 4.409133,0 8,-3.5908667 8,-8 l 0,-71 c 0,-4.409133 -3.590867,-8 -8,-8 l -72,0 z"
       transform="scale(1,-1)"
       id="path3770"
       style="opacity:0.2;fill:url(#linearGradient3772);fill-opacity:1;fill-rule:nonzero;stroke:none;display:inline" />
    <rect
       width="86"
       height="85"
       rx="7"
       ry="7"
       x="5"
       y="-92"
       transform="scale(1,-1)"
       id="rect3723"
       style="opacity:0.3;fill:url(#linearGradient3725);fill-opacity:1;fill-rule:nonzero;stroke:none;display:inline" />
    <rect
       width="84"
       height="84"
       rx="6"
       ry="6"
       x="6"
       y="-91"
       transform="scale(1,-1)"
       id="rect3716"
       style="opacity:0.45;fill:url(#linearGradient3721);fill-opacity:1;fill-rule:nonzero;stroke:none;display:inline" />
  </g>
  <g
     id="layer1">
    <rect
       width="84"
       height="84"
       rx="6"
       ry="6"
       x="6"
       y="6"
       id="rect2419"
       style="fill:url(#linearGradient3633);fill-opacity:1;fill-rule:nonzero;stroke:none" />
    <rect
       width="1"
       height="84"
       x="24"
       y="6"
       id="rect3650"
       style="opacity:0.15;fill:#ffffff;fill-opacity:1;stroke:none" />
    <path
       d="M 12,6 C 8.676,6 6,8.676 6,12 l 0,72 c 0,3.324 2.676,6 6,6 L 24,90 24,6 12,6 z"
       id="rect3635"
       style="fill:url(#linearGradient3646);fill-opacity:1;stroke:none" />
    <rect
       width="1"
       height="84"
       x="23"
       y="6"
       id="rect3648"
       style="opacity:0.4;fill:#000000;fill-opacity:1;stroke:none" />
    <path
       d="M 12,6 C 8.676,6 6,8.676 6,12 l 0,2 0,68 0,2 c 0,0.334721 0.04135,0.6507 0.09375,0.96875 0.0487,0.295596 0.09704,0.596915 0.1875,0.875 0.00988,0.03038 0.020892,0.0636 0.03125,0.09375 0.098865,0.287771 0.2348802,0.547452 0.375,0.8125 0.1445918,0.273507 0.3156161,0.535615 0.5,0.78125 0.1843839,0.245635 0.3737765,0.473472 0.59375,0.6875 0.439947,0.428056 0.94291,0.814526 1.5,1.09375 0.278545,0.139612 0.5734731,0.246947 0.875,0.34375 -0.2562018,-0.100222 -0.4867109,-0.236272 -0.71875,-0.375 -0.00741,-0.0044 -0.023866,0.0045 -0.03125,0 -0.031933,-0.0193 -0.062293,-0.04251 -0.09375,-0.0625 -0.120395,-0.0767 -0.2310226,-0.163513 -0.34375,-0.25 -0.1061728,-0.0808 -0.2132809,-0.161112 -0.3125,-0.25 C 8.4783201,88.557317 8.3087904,88.373362 8.15625,88.1875 8.0486711,88.057245 7.9378561,87.922215 7.84375,87.78125 7.818661,87.74287 7.805304,87.69538 7.78125,87.65625 7.716487,87.553218 7.6510225,87.451733 7.59375,87.34375 7.4927417,87.149044 7.3880752,86.928049 7.3125,86.71875 7.30454,86.69694 7.288911,86.6782 7.28125,86.65625 7.2494249,86.5643 7.2454455,86.469419 7.21875,86.375 7.1884177,86.268382 7.1483606,86.171969 7.125,86.0625 7.0521214,85.720988 7,85.364295 7,85 L 7,83 7,15 7,13 C 7,10.218152 9.2181517,8 12,8 l 2,0 68,0 2,0 c 2.781848,0 5,2.218152 5,5 l 0,2 0,68 0,2 c 0,0.364295 -0.05212,0.720988 -0.125,1.0625 -0.04415,0.206893 -0.08838,0.397658 -0.15625,0.59375 -0.0077,0.02195 -0.0233,0.04069 -0.03125,0.0625 -0.06274,0.173739 -0.138383,0.367449 -0.21875,0.53125 -0.04158,0.0828 -0.07904,0.169954 -0.125,0.25 -0.0546,0.09721 -0.126774,0.18835 -0.1875,0.28125 -0.09411,0.140965 -0.204921,0.275995 -0.3125,0.40625 -0.143174,0.17445 -0.303141,0.346998 -0.46875,0.5 -0.01117,0.0102 -0.01998,0.02115 -0.03125,0.03125 -0.138386,0.125556 -0.285091,0.234436 -0.4375,0.34375 -0.102571,0.07315 -0.204318,0.153364 -0.3125,0.21875 -0.0074,0.0045 -0.02384,-0.0044 -0.03125,0 -0.232039,0.138728 -0.462548,0.274778 -0.71875,0.375 0.301527,-0.0968 0.596455,-0.204138 0.875,-0.34375 0.55709,-0.279224 1.060053,-0.665694 1.5,-1.09375 0.219973,-0.214028 0.409366,-0.441865 0.59375,-0.6875 0.184384,-0.245635 0.355408,-0.507743 0.5,-0.78125 0.14012,-0.265048 0.276135,-0.524729 0.375,-0.8125 0.01041,-0.03078 0.02133,-0.06274 0.03125,-0.09375 0.09046,-0.278085 0.1388,-0.579404 0.1875,-0.875 C 89.95865,84.6507 90,84.334721 90,84 l 0,-2 0,-68 0,-2 C 90,8.676 87.324,6 84,6 L 12,6 z"
       id="rect3728"
       style="opacity:0.3;fill:url(#linearGradient3188);fill-opacity:1;fill-rule:nonzero;stroke:none" />
    <path
       d="M 12,90 C 8.676,90 6,87.324 6,84 L 6,82 6,14 6,12 c 0,-0.334721 0.04135,-0.6507 0.09375,-0.96875 0.0487,-0.295596 0.09704,-0.596915 0.1875,-0.875 C 6.29113,10.12587 6.302142,10.09265 6.3125,10.0625 6.411365,9.774729 6.5473802,9.515048 6.6875,9.25 6.8320918,8.976493 7.0031161,8.714385 7.1875,8.46875 7.3718839,8.223115 7.5612765,7.995278 7.78125,7.78125 8.221197,7.353194 8.72416,6.966724 9.28125,6.6875 9.559795,6.547888 9.8547231,6.440553 10.15625,6.34375 9.9000482,6.443972 9.6695391,6.580022 9.4375,6.71875 c -0.00741,0.0044 -0.023866,-0.0045 -0.03125,0 -0.031933,0.0193 -0.062293,0.04251 -0.09375,0.0625 -0.120395,0.0767 -0.2310226,0.163513 -0.34375,0.25 -0.1061728,0.0808 -0.2132809,0.161112 -0.3125,0.25 C 8.4783201,7.442683 8.3087904,7.626638 8.15625,7.8125 8.0486711,7.942755 7.9378561,8.077785 7.84375,8.21875 7.818661,8.25713 7.805304,8.30462 7.78125,8.34375 7.716487,8.446782 7.6510225,8.548267 7.59375,8.65625 7.4927417,8.850956 7.3880752,9.071951 7.3125,9.28125 7.30454,9.30306 7.288911,9.3218 7.28125,9.34375 7.2494249,9.4357 7.2454455,9.530581 7.21875,9.625 7.1884177,9.731618 7.1483606,9.828031 7.125,9.9375 7.0521214,10.279012 7,10.635705 7,11 l 0,2 0,68 0,2 c 0,2.781848 2.2181517,5 5,5 l 2,0 68,0 2,0 c 2.781848,0 5,-2.218152 5,-5 l 0,-2 0,-68 0,-2 C 89,10.635705 88.94788,10.279012 88.875,9.9375 88.83085,9.730607 88.78662,9.539842 88.71875,9.34375 88.71105,9.3218 88.69545,9.30306 88.6875,9.28125 88.62476,9.107511 88.549117,8.913801 88.46875,8.75 88.42717,8.6672 88.38971,8.580046 88.34375,8.5 88.28915,8.40279 88.216976,8.31165 88.15625,8.21875 88.06214,8.077785 87.951329,7.942755 87.84375,7.8125 87.700576,7.63805 87.540609,7.465502 87.375,7.3125 87.36383,7.3023 87.35502,7.29135 87.34375,7.28125 87.205364,7.155694 87.058659,7.046814 86.90625,6.9375 86.803679,6.86435 86.701932,6.784136 86.59375,6.71875 c -0.0074,-0.0045 -0.02384,0.0044 -0.03125,0 -0.232039,-0.138728 -0.462548,-0.274778 -0.71875,-0.375 0.301527,0.0968 0.596455,0.204138 0.875,0.34375 0.55709,0.279224 1.060053,0.665694 1.5,1.09375 0.219973,0.214028 0.409366,0.441865 0.59375,0.6875 0.184384,0.245635 0.355408,0.507743 0.5,0.78125 0.14012,0.265048 0.276135,0.524729 0.375,0.8125 0.01041,0.03078 0.02133,0.06274 0.03125,0.09375 0.09046,0.278085 0.1388,0.579404 0.1875,0.875 C 89.95865,11.3493 90,11.665279 90,12 l 0,2 0,68 0,2 c 0,3.324 -2.676,6 -6,6 l -72,0 z"
       id="path3615"
       style="opacity:0.2;fill:url(#radialGradient3619);fill-opacity:1;fill-rule:nonzero;stroke:none" />
  </g>
  <g
     id="layer5">
    <rect
       width="66"
       height="66"
       rx="12"
       ry="12"
       x="15"
       y="15"
       clip-path="url(#clipPath3613)"
       id="rect3171"
       style="opacity:0.1;fill:url(#linearGradient3613);fill-opacity:1;fill-rule:nonzero;stroke:#ffffff;stroke-width:0.5;stroke-linecap:round;stroke-linejoin:miter;stroke-miterlimit:4;stroke-opacity:1;stroke-dasharray:none;stroke-dashoffset:0;filter:url(#filter3794)" />
  </g>
  <g
     id="layer4">
    <g
       id="g3799">
      <path
         d="m 10,24 c 0,-2.209139 1.790861,-4 4,-4 2.209139,0 4,1.790861 4,4 0,2.209139 -1.790861,4 -4,4 -2.209139,0 -4,-1.790861 -4,-4 z m 1,0 c 0,1.656854 1.343146,3 3,3 1.656854,0 3,-1.343146 3,-3 0,-1.656854 -1.343146,-3 -3,-3 -1.656854,0 -3,1.343146 -3,3 z"
         id="path3773"
         style="opacity:0.3;fill:url(#linearGradient3784);fill-opacity:1;stroke:none" />
      <path
         d="m 6,21 0,7 8,0 c 1.646385,0 3,-1.579217 3,-3.5 C 17,22.579218 15.646385,21 14,21 l -8,0 z"
         id="path3792"
         style="opacity:0.3;fill:#000000;fill-opacity:1;stroke:none" />
      <path
         d="m 17,24 a 3,3 0 1 1 -6,0 3,3 0 1 1 6,0 z"
         id="path3771"
         style="opacity:0.6;fill:#000000;fill-opacity:1;stroke:none" />
      <rect
         width="12"
         height="4"
         rx="2"
         ry="2"
         x="4"
         y="22"
         id="rect3733"
         style="fill:url(#linearGradient3751);fill-opacity:1;stroke:none" />
      <rect
         width="12"
         height="4"
         rx="2"
         ry="2"
         x="4"
         y="22"
         id="rect3759"
         style="opacity:0.6;fill:url(#linearGradient3767);fill-opacity:1;stroke:none" />
    </g>
    <use
       transform="translate(0,12)"
       id="use3806"
       x="0"
       y="0"
       width="96"
       height="96"
       xlink:href="#g3799" />
    <use
       transform="translate(0,24)"
       id="use3808"
       x="0"
       y="0"
       width="96"
       height="96"
       xlink:href="#g3799" />
    <use
       transform="translate(0,36)"
       id="use3810"
       x="0"
       y="0"
       width="96"
       height="96"
       xlink:href="#g3799" />
    <use
       transform="translate(0,48)"
       id="use3812"
       x="0"
       y="0"
       width="96"
       height="96"
       xlink:href="#g3799" />
  </g>
  <g
     id="layer1-4"
     inkscape:label="Layer 1"
     transform="matrix(0.31538961,0,0,0.31538961,15.400126,8.554109)"
     style="fill:#ffffff;filter:url(#filter3998)">
    <text
       sodipodi:linespacing="125%"
       id="text2383"
       y="160.93361"
       x="62.85714"
       style="font-size:40px;font-style:normal;font-weight:normal;line-height:125%;fill:#ffffff;fill-opacity:1;stroke:none;font-family:Bitstream Vera Sans"
       xml:space="preserve"><tspan
         style="font-size:144px;font-style:normal;font-variant:normal;font-weight:normal;font-stretch:normal;text-align:start;line-height:125%;writing-mode:lr-tb;text-anchor:start;font-family:'王漢宗中隸書繁';-inkscape-font-specification:'王漢宗中隸書繁';fill:#ffffff"
         y="160.93361"
         x="62.85714"
         id="tspan2385"
         sodipodi:role="line" /></text>
    <path
       id="text2388"
       d="m 107.28906,56.90625 c 1.69263,-2.734242 4.75252,-3.580595 9.17969,-2.539062 5.85928,3.645962 7.8124,8.85429 5.85937,15.625 -0.52092,3.125114 1.23689,4.752716 5.27344,4.882812 l 6.05469,0 c 3.38531,1.12e-4 5.01291,-1.497282 4.88281,-4.492188 -0.26052,-3.255088 -0.32563,-6.510293 -0.19531,-9.765624 1.04156,-4.947786 3.64572,-7.226429 7.8125,-6.835938 7.42175,1.562632 10.15612,7.09648 8.20313,16.601562 -0.78138,3.385531 0.78112,5.143341 4.6875,5.273438 5.3384,0.13032 10.67694,0.716257 16.01562,1.757812 7.68214,1.823025 11.19776,7.29177 10.54688,16.40625 -1.43245,4.687589 -2.27881,9.895918 -2.53907,15.624998 -0.65119,12.23965 -1.82307,23.50266 -3.51562,33.78907 -0.39078,2.99483 1.49724,4.75264 5.66406,5.27343 11.06754,1.17191 22.33055,2.5391 33.78906,4.10157 1.95293,0.39065 3.12481,1.56253 3.51563,3.51562 -0.26061,2.21357 -1.49759,4.49221 -3.71094,6.83594 -5.59914,7.94272 -11.91424,9.70053 -18.94531,5.27344 -23.43765,-10.02602 -52.7996,-14.32289 -88.08594,-12.89063 -20.052147,0.65107 -38.476608,4.2318 -55.273438,10.74219 -4.296899,2.47397 -7.747416,3.64585 -10.351562,3.51562 -2.08335,0.65106 -4.427097,-0.2604 -7.03125,-2.73437 -2.083343,-4.16664 -1.822926,-7.81247 0.78125,-10.9375 5.078108,-6.51038 10.677061,-9.04944 16.796875,-7.61719 l 15.625,-0.58594 c 3.124952,-0.26037 4.557243,-2.34371 4.296875,-6.25 C 75.322869,126.11204 74.216099,110.68237 73.304688,95.1875 72.393185,87.3751 73.369746,81.645939 76.234375,78 c 5.729112,-2.604055 14.322854,-3.645721 25.781245,-3.125 3.12493,1.12e-4 4.62232,-1.953011 4.49219,-5.859375 -1.04174,-5.338418 -0.78133,-9.374872 0.78125,-12.109375 m 31.64063,33.984375 c -1.1e-4,-2.994692 -1.75792,-4.492087 -5.27344,-4.492187 -2.08344,0.130308 -4.36208,0.0652 -6.83594,-0.195313 -3.90634,0.520934 -5.85947,2.343849 -5.85937,5.46875 l 0,11.718745 c -10e-5,3.12509 1.95303,4.68758 5.85937,4.6875 l 6.64063,0 c 3.12489,8e-5 4.8176,-1.95304 5.07812,-5.85937 l 0.39063,-11.328125 m 17.57812,-3.320313 c -3.25533,-0.260316 -5.01314,1.497494 -5.27343,5.273438 L 150.84375,103 c -1.2e-4,3.12508 1.953,4.68758 5.85937,4.6875 l 8.39844,-0.19531 c 3.12486,-0.26034 4.75246,-2.08325 4.88282,-5.46875 0.39048,-3.385331 0.45558,-6.770744 0.19531,-10.156252 -3.77618,-2.473861 -8.33347,-3.906151 -13.67188,-4.296876 m -52.92969,0.195313 c -6.770897,0.911557 -11.914121,2.083431 -15.429682,3.515625 -0.78131,1.17197 -1.171935,3.255301 -1.171876,6.25 l 0,3.71094 c 0.390566,3.90633 2.539001,6.05476 6.445313,6.44531 l 10.546875,0.58594 c 2.99471,8e-5 4.49211,-1.62753 4.49219,-4.88282 0.13013,-3.515533 -8e-5,-7.031154 -0.39063,-10.54687 -8e-5,-3.515527 -1.49747,-5.208234 -4.49219,-5.078125 m 4.88282,38.281255 c -8e-5,-3.12494 -1.56258,-4.75254 -4.6875,-4.88282 l -9.570315,0.39063 c -3.515688,0.26048 -5.14329,2.2136 -4.882813,5.85937 L 91.078125,140.5 c -6.3e-5,3.64588 1.367123,5.33858 4.101563,5.07812 l 8.398432,-0.78124 c 3.25513,4e-5 4.88274,-1.56246 4.88282,-4.6875 l 0,-14.0625 m 28.90625,1.17187 c 0.2603,-4.42702 -1.17199,-6.64056 -4.29688,-6.64063 l -6.64062,0 c -3.25531,7e-5 -4.8178,2.0183 -4.6875,6.05469 -10e-5,4.29693 0.19522,8.5938 0.58593,12.89063 -9e-5,3.25525 1.56241,4.88285 4.6875,4.88281 l 4.29688,0 c 3.12489,4e-5 4.8176,-1.95308 5.07812,-5.85937 l 0.97657,-11.32813 m 25.58593,-6.44531 -7.61718,0 c -3.12513,6e-5 -4.81783,1.95319 -5.07813,5.85937 l -0.39062,13.67188 c -1.2e-4,3.12504 1.953,4.81775 5.85937,5.07812 l 5.07813,0.39063 c 3.12486,0.39066 4.88267,-1.36715 5.27343,-5.27344 l 1.5625,-13.47656 c 0.5207,-3.51556 -1.0418,-5.5989 -4.6875,-6.25 m -64.062495,46.48437 c 4.166595,-5.20831 8.137945,-5.72914 11.914065,-1.5625 7.16137,7.16148 5.79418,12.76043 -4.10157,16.79688 -5.46882,2.60417 -10.677147,5.79427 -15.624995,9.57031 -5.729224,3.90624 -10.937552,6.83593 -15.625,8.78906 -2.083379,1.43228 -4.427127,1.04165 -7.03125,-1.17187 -0.651082,-1.3021 -4.1e-5,-2.8646 1.953125,-4.6875 5.859327,-6.38021 15.364525,-15.62499 28.515625,-27.73438 M 151.625,164.91406 c 5.2082,-1.9531 10.74205,0.0651 16.60156,6.05469 2.73423,3.77605 7.87746,9.17969 15.42969,16.21094 5.5988,4.8177 6.31494,8.65884 2.14844,11.52343 -1.56266,0.65103 -3.8413,-1e-5 -6.83594,-1.95312 -6.77098,-5.20834 -14.58347,-10.09115 -23.4375,-14.64844 -4.03658,-2.60416 -6.25012,-4.8828 -6.64063,-6.83594 -1.69282,-4.03644 -0.78137,-7.48695 2.73438,-10.35156"
       style="font-size:40px;font-style:normal;font-weight:normal;line-height:125%;fill:#ffffff;fill-opacity:1;stroke:none;font-family:Bitstream Vera Sans"
       inkscape:connector-curvature="0" />
  </g>
</svg>
