<?xml version="1.0" encoding="utf-8"?>
<!-- Generator: Adobe Illustrator 17.1.0, SVG Export Plug-In . SVG Version: 6.00 Build 0)  -->
<!DOCTYPE svg PUBLIC "-//W3C//DTD SVG 1.1//EN" "http://www.w3.org/Graphics/SVG/1.1/DTD/svg11.dtd">
<svg version="1.1" id="图层_1" xmlns="http://www.w3.org/2000/svg" xmlns:xlink="http://www.w3.org/1999/xlink" x="0px" y="0px"
	 viewBox="0 0 128 128" enable-background="new 0 0 128 128" xml:space="preserve">
<path fill="#E2C551" d="M47,86h77V22c0-9.9-8.2-18-18.2-18H47V86z"/>
<linearGradient id="SVGID_1_" gradientUnits="userSpaceOnUse" x1="64" y1="4" x2="64" y2="124">
	<stop  offset="0" style="stop-color:#EFDF8E"/>
	<stop  offset="1" style="stop-color:#EACC66"/>
</linearGradient>
<path fill="url(#SVGID_1_)" d="M62.5,19.5c-2.1-4.4-4-8.6-5.2-11.2C55.3,4,48.3,4,48.3,4H21.8C11.9,4,4,12.1,4,22v84
	c0,9.9,7.9,18,17.8,18h84c9.9,0,18.2-8.1,18.2-18c0,0,0-69.9,0-73.7c0-8.9-9.5-9.3-9.5-9.3H68.4C68.4,23,64.3,23.4,62.5,19.5z"/>
<path fill="#D6B017" d="M38,69.5c0,14.5,11.7,26.2,26.1,26.2c6.1,0,11.6-2.1,16.1-5.5l-4.5-4.8c-3.2,2.4-7.2,3.8-11.6,3.8
	c-10.8,0-19.6-8.8-19.6-19.6c0-10.8,8.8-19.6,19.6-19.6c10.6,0,19.2,8.4,19.5,19h-6.4l9,13.1l9-13.1h-5.1
	c-0.3-14.2-11.9-25.5-26.1-25.5C49.7,43.3,38,55,38,69.5z M62,55.4v15l9.6,9.6l3.2-3.2l-8.3-8.3V55.4H62z"/>
</svg>
