<?xml version="1.0" encoding="utf-8"?>
<!-- Generator: Adobe Illustrator 17.1.0, SVG Export Plug-In . SVG Version: 6.00 Build 0)  -->
<!DOCTYPE svg PUBLIC "-//W3C//DTD SVG 1.1//EN" "http://www.w3.org/Graphics/SVG/1.1/DTD/svg11.dtd">
<svg version="1.1" id="图层_1" xmlns="http://www.w3.org/2000/svg" xmlns:xlink="http://www.w3.org/1999/xlink" x="0px" y="0px"
	 viewBox="0 0 128 128" enable-background="new 0 0 128 128" xml:space="preserve">
<path fill="#E2C551" d="M48,86h76V22c0-9.9-7.8-18-17.7-18H48V86z"/>
<linearGradient id="SVGID_1_" gradientUnits="userSpaceOnUse" x1="64" y1="4" x2="64" y2="124">
	<stop  offset="0" style="stop-color:#EFDF8E"/>
	<stop  offset="1" style="stop-color:#EACC66"/>
</linearGradient>
<path fill="url(#SVGID_1_)" d="M63,19.5c-2.1-4.4-4-8.6-5.2-11.2C55.7,4,48.8,4,48.8,4H22.3C12.3,4,4,12.1,4,22v84
	c0,9.9,8.3,18,18.3,18h84c9.9,0,17.7-8.1,17.7-18c0,0,0-69.9,0-73.7c0-8.9-9.1-9.3-9.1-9.3H68.8C68.8,23,64.8,23.4,63,19.5z"/>
<path id="picture-multi-icon_6_" fill="#D6B017" d="M57.9,68c0-2.1,1.7-3.8,3.7-3.8c2.1,0,3.7,1.7,3.7,3.8c0,2.1-1.7,3.8-3.7,3.8
	C59.6,71.7,57.9,70,57.9,68z M76.9,68.1l-6.2,8.9l-3.4-3.5l-9.5,10.9h29.7L76.9,68.1z M87.3,55.4v-9.6H37v38.4h9.6v9.6H97V55.4H87.3
	z M41.9,79.2V50.7h40.5v4.7H46.6v23.8H41.9L41.9,79.2z M92.1,88.8H51.5V60.3h40.7V88.8z"/>
</svg>
