<?xml version="1.0" encoding="utf-8"?>
<!-- Generator: Adobe Illustrator 17.1.0, SVG Export Plug-In . SVG Version: 6.00 Build 0)  -->
<!DOCTYPE svg PUBLIC "-//W3C//DTD SVG 1.1//EN" "http://www.w3.org/Graphics/SVG/1.1/DTD/svg11.dtd">
<svg version="1.1" id="图层_1" xmlns="http://www.w3.org/2000/svg" xmlns:xlink="http://www.w3.org/1999/xlink" x="0px" y="0px"
	 viewBox="0 0 128 128" enable-background="new 0 0 128 128" xml:space="preserve">
<path fill="#E2C551" d="M48,86h76V22c0-9.9-7.7-18-17.6-18H48V86z"/>
<linearGradient id="SVGID_1_" gradientUnits="userSpaceOnUse" x1="64" y1="4" x2="64" y2="124">
	<stop  offset="0" style="stop-color:#EFDF8E"/>
	<stop  offset="1" style="stop-color:#EACC66"/>
</linearGradient>
<path fill="url(#SVGID_1_)" d="M63.1,19.5c-2.1-4.4-4-8.6-5.2-11.2C55.8,4,48.9,4,48.9,4H22.4C12.4,4,4,12.1,4,22v84
	c0,9.9,8.4,18,18.4,18h84c9.9,0,17.6-8.1,17.6-18c0,0,0-69.9,0-73.7c0-8.9-9-9.3-9-9.3H68.9C68.9,23,64.9,23.4,63.1,19.5z"/>
<path fill="#D6B017" d="M79.4,70.5c0-0.6-0.5-1.5-1.2-1.5H73l-3-9.6c0.8-1.1,1.4-2.4,1.4-3.8c0-3-2.5-5.4-4.5-6.4v-9.5
	c0-0.6-0.8-0.7-1.5-0.7h-2.3c-0.6,0-1.2,0-1.2,0.7v9.5c-3,0.9-4.6,3.5-4.6,6.5c0,1.5,0.5,2.6,1.3,3.8L55.8,69h-5.2
	c-0.6,0-1.2,0.9-1.2,1.5s0.5,1.5,1.2,1.5h4.5l-2.6,8.3c-2.6,8.5-2.6,16-0.2,16.7l7.6-25h9l7.6,24.9c2.5-0.7,2.4-8-0.2-16.5L73.7,72
	h4.5C78.9,72,79.4,71.1,79.4,70.5z M60.6,69l2.1-6.9c0.5,0.1,1.1,0.3,1.6,0.3c0.6,0,1.2-0.2,1.7-0.3l2.1,6.9H60.6z M68.8,56.7
	c0,0.2-0.1,0.4-0.2,0.6c-0.1,0.2-0.2,0.4-0.3,0.5c0,0,0,0,0,0c-0.1,0.2-0.2,0.3-0.3,0.5c-0.1,0.2-0.2,0.3-0.4,0.5
	c-0.1,0.1-0.3,0.3-0.5,0.4c-0.3,0.2-0.7,0.5-1.1,0.6c-0.2,0.1-0.4,0.1-0.6,0.2c-0.3,0.1-0.7,0.1-1,0.1c-0.3,0-0.7,0-1-0.1
	c-0.3-0.1-0.6-0.1-0.8-0.2c0,0-0.1,0-0.1,0c-0.2-0.1-0.4-0.2-0.6-0.3c-0.1,0-0.1-0.1-0.2-0.1c0,0-0.1-0.1-0.1-0.1
	c-0.1-0.1-0.2-0.2-0.4-0.3c-0.1-0.1-0.3-0.3-0.4-0.5c-0.1-0.1-0.1-0.1-0.2-0.2c0,0,0-0.1-0.1-0.1c0-0.1-0.1-0.1-0.1-0.1
	c-0.1-0.2-0.2-0.4-0.3-0.6c-0.1-0.2-0.1-0.4-0.2-0.6c-0.1-0.3-0.1-0.7-0.1-1.1c0-2.5,2.1-4.6,4.6-4.6s4.6,2,4.6,4.6
	C69,56,68.9,56.4,68.8,56.7z"/>
</svg>
