<?xml version="1.0" encoding="utf-8"?>
<!-- Generator: Adobe Illustrator 17.1.0, SVG Export Plug-In . SVG Version: 6.00 Build 0)  -->
<!DOCTYPE svg PUBLIC "-//W3C//DTD SVG 1.1//EN" "http://www.w3.org/Graphics/SVG/1.1/DTD/svg11.dtd">
<svg version="1.1" id="图层_1" xmlns="http://www.w3.org/2000/svg" xmlns:xlink="http://www.w3.org/1999/xlink" x="0px" y="0px"
	 viewBox="0 0 128 128" enable-background="new 0 0 128 128" xml:space="preserve">
<path fill="#E2C551" d="M47,86h77V22c0-9.9-8.5-18-18.5-18H47V86z"/>
<linearGradient id="SVGID_1_" gradientUnits="userSpaceOnUse" x1="64" y1="4" x2="64" y2="124">
	<stop  offset="0" style="stop-color:#EFDF8E"/>
	<stop  offset="1" style="stop-color:#EACC66"/>
</linearGradient>
<path fill="url(#SVGID_1_)" d="M62.2,19.5c-2.1-4.4-4-8.6-5.2-11.2C55,4,48.1,4,48.1,4H21.5C11.6,4,4,12.1,4,22v84
	c0,9.9,7.6,18,17.5,18h84c9.9,0,18.5-8.1,18.5-18c0,0,0-69.9,0-73.7c0-8.9-9.8-9.3-9.8-9.3H68.1C68.1,23,64.1,23.4,62.2,19.5z"/>
<path id="video-icon_4_" fill="#D6B017" d="M39,47.4V94h49.1V47.4H39z M49.4,89.1H44v-4.6h5.4V89.1L49.4,89.1z M49.4,81.1H44v-4.6
	h5.4V81.1L49.4,81.1z M49.4,73H44v-4.6h5.4V73L49.4,73z M49.4,65H44v-4.6h5.4V65L49.4,65z M49.4,56.9H44v-4.6h5.4V56.9L49.4,56.9z
	 M73.3,89.1h-19V73h19V89.1z M73.3,68.4h-19V52.3h19V68.4z M83.5,89.1h-5.4v-4.6h5.4V89.1z M83.5,81.1h-5.4v-4.6h5.4V81.1z M83.5,73
	h-5.4v-4.6h5.4V73z M83.5,65h-5.4v-4.6h5.4V65z M83.5,56.9h-5.4v-4.6h5.4V56.9z"/>
</svg>
