<?xml version="1.0" encoding="utf-8"?>
<!-- Generator: Adobe Illustrator 17.1.0, SVG Export Plug-In . SVG Version: 6.00 Build 0)  -->
<!DOCTYPE svg PUBLIC "-//W3C//DTD SVG 1.1//EN" "http://www.w3.org/Graphics/SVG/1.1/DTD/svg11.dtd">
<svg version="1.1" id="图层_1" xmlns="http://www.w3.org/2000/svg" xmlns:xlink="http://www.w3.org/1999/xlink" x="0px" y="0px"
	 viewBox="0 0 128 128" enable-background="new 0 0 128 128" xml:space="preserve">
<path fill="#E2C551" d="M48,86h76V22c0-9.9-7.6-18-17.5-18H48V86z"/>
<linearGradient id="SVGID_1_" gradientUnits="userSpaceOnUse" x1="64" y1="4" x2="64" y2="124">
	<stop  offset="0" style="stop-color:#EFDF8E"/>
	<stop  offset="1" style="stop-color:#EACC66"/>
</linearGradient>
<path fill="url(#SVGID_1_)" d="M63.1,19.5c-2.1-4.4-4-8.6-5.2-11.2C55.9,4,49,4,49,4H22.5C12.5,4,4,12.1,4,22v84
	c0,9.9,8.5,18,18.5,18h84c9.9,0,17.5-8.1,17.5-18c0,0,0-69.9,0-73.7c0-8.9-8.9-9.3-8.9-9.3H69C69,23,65,23.4,63.1,19.5z"/>
<path fill="#D6B017" d="M64.5,46.9c-11.8,0-23.7,4.6-32.7,13.8l5.4,5.6c15.1-15.4,39.5-15.4,54.6,0l5.4-5.6
	C88.2,51.5,76.4,46.9,64.5,46.9z"/>
<path fill="#D6B017" d="M64.5,62.6c-7.9,0-15.8,3.1-21.8,9.2l5.5,5.6c9-9.2,23.7-9.2,32.7,0l5.5-5.6C80.3,65.7,72.4,62.6,64.5,62.6z
	"/>
<path fill="#D6B017" d="M64.5,78.3c-3.9,0-7.9,1.5-10.9,4.6l10.9,11.1l10.9-11.1C72.4,79.9,68.5,78.3,64.5,78.3z"/>
</svg>
