<?xml version="1.0" encoding="utf-8"?>
<!-- Generator: Adobe Illustrator 17.1.0, SVG Export Plug-In . SVG Version: 6.00 Build 0)  -->
<!DOCTYPE svg PUBLIC "-//W3C//DTD SVG 1.1//EN" "http://www.w3.org/Graphics/SVG/1.1/DTD/svg11.dtd">
<svg version="1.1" id="图层_1" xmlns="http://www.w3.org/2000/svg" xmlns:xlink="http://www.w3.org/1999/xlink" x="0px" y="0px"
	 viewBox="0 0 128 128" enable-background="new 0 0 128 128" xml:space="preserve">
<path fill="#E2C551" d="M48,86h76V22c0-9.9-7.6-18-17.5-18H48V86z"/>
<linearGradient id="SVGID_1_" gradientUnits="userSpaceOnUse" x1="64" y1="4" x2="64" y2="124">
	<stop  offset="0" style="stop-color:#EFDF8E"/>
	<stop  offset="1" style="stop-color:#EACC66"/>
</linearGradient>
<path fill="url(#SVGID_1_)" d="M63.1,19.5c-2.1-4.4-4-8.6-5.2-11.2C55.9,4,49,4,49,4H22.5C12.5,4,4,12.1,4,22v84
	c0,9.9,8.5,18,18.5,18h84c9.9,0,17.5-8.1,17.5-18c0,0,0-69.9,0-73.7c0-8.9-8.9-9.3-8.9-9.3H69C69,23,65,23.4,63.1,19.5z"/>
<path id="pen-4-icon_5_" fill="#D6B017" d="M85.5,64.2v10c0,7.3-10,18-18.2,18H42.6V43h35.5l-2.5,2.5c-0.6,0.6-1.1,1.4-1.4,2.2H47.4
	v39.6c14.1,0,16,0,19.9,0c7,0,4.2-9.1,4.2-9.1s9.3,3,9.3-4.5c0-0.8,0-2.6,0-4.8c0,0,0,0,0,0L85.5,64.2z M62.3,70.1H51.7v3.4h10.6
	V70.1z M95.8,49.1c1.8-1.8,1.8-4.7,0-6.4c-1.8-1.8-4.7-1.8-6.4,0L78.1,54l6.4,6.4L95.8,49.1z M82.4,61.7L78,66.2
	c-2.6,2.6-5.1,3.9-8.5,5.1l-2.2-2.2c1.2-3.5,2.5-5.9,5.1-8.5l4.5-4.5L82.4,61.7z M66.5,73.2c-0.3,0.3-0.9,0.3-1.2,0
	c-0.3-0.3-0.3-0.9,0-1.2l1.3-1.3l1.2,1.2L66.5,73.2z M78.4,51.3c-0.8-0.8-0.8-2.1,0-3l7.2-7.2c0.8-0.8,2.1-0.8,3,0L78.4,51.3z"/>
</svg>
