<?xml version="1.0" encoding="utf-8"?>
<!-- Generator: Adobe Illustrator 17.1.0, SVG Export Plug-In . SVG Version: 6.00 Build 0)  -->
<!DOCTYPE svg PUBLIC "-//W3C//DTD SVG 1.1//EN" "http://www.w3.org/Graphics/SVG/1.1/DTD/svg11.dtd">
<svg version="1.1" id="图层_1" xmlns="http://www.w3.org/2000/svg" xmlns:xlink="http://www.w3.org/1999/xlink" x="0px" y="0px"
	 viewBox="0 0 128 128" enable-background="new 0 0 128 128" xml:space="preserve">
<path fill="#E2C551" d="M48,86h76V22c0-9.9-8.2-18-18.1-18H48V86z"/>
<linearGradient id="SVGID_1_" gradientUnits="userSpaceOnUse" x1="64" y1="4" x2="64" y2="124">
	<stop  offset="0" style="stop-color:#EFDF8E"/>
	<stop  offset="1" style="stop-color:#EACC66"/>
</linearGradient>
<path fill="url(#SVGID_1_)" d="M62.6,19.5c-2.1-4.4-4-8.6-5.2-11.2C55.3,4,48.4,4,48.4,4H21.9C12,4,4,12.1,4,22v84
	c0,9.9,8,18,17.9,18h84c9.9,0,18.1-8.1,18.1-18c0,0,0-69.9,0-73.7c0-8.9-9.4-9.3-9.4-9.3H68.5C68.5,23,64.4,23.4,62.6,19.5z"/>
<path fill="#D6B017" d="M54,42.3v31c-2-0.9-5.4-1-8.5-0.2c-5.8,1.5-9.8,5.7-8.7,9.3c1,3.6,6.6,5.5,12.4,4.1c4.9-1.3,8.5-4.5,8.8-7.5
	h0V55.9l21,2.5v22.1c-2-0.8-5.4-1-8.5-0.2c-5.8,1.5-9.8,5.7-8.7,9.3c1,3.6,6.6,5.5,12.4,4c5-1.3,8.5-4.6,8.8-7.6H83V46L54,42.3z
	 M79,55.1l-21-2.5v-2.8l21,2.8V55.1z"/>
</svg>
