<?xml version="1.0" encoding="utf-8"?>
<!-- Generator: Adobe Illustrator 17.1.0, SVG Export Plug-In . SVG Version: 6.00 Build 0)  -->
<!DOCTYPE svg PUBLIC "-//W3C//DTD SVG 1.1//EN" "http://www.w3.org/Graphics/SVG/1.1/DTD/svg11.dtd">
<svg version="1.1" id="图层_1" xmlns="http://www.w3.org/2000/svg" xmlns:xlink="http://www.w3.org/1999/xlink" x="0px" y="0px"
	 viewBox="0 0 128 128" enable-background="new 0 0 128 128" xml:space="preserve">
<path fill="#E2C551" d="M48,86h76V22c0-9.9-7.9-18-17.8-18H48V86z"/>
<linearGradient id="SVGID_1_" gradientUnits="userSpaceOnUse" x1="64" y1="4" x2="64" y2="124">
	<stop  offset="0" style="stop-color:#EFDF8E"/>
	<stop  offset="1" style="stop-color:#EACC66"/>
</linearGradient>
<path fill="url(#SVGID_1_)" d="M62.9,19.5c-2.1-4.4-4-8.6-5.2-11.2C55.6,4,48.7,4,48.7,4H22.2C12.2,4,4,12.1,4,22v84
	c0,9.9,8.2,18,18.2,18h84c9.9,0,17.8-8.1,17.8-18c0,0,0-69.9,0-73.7c0-8.9-9.2-9.3-9.2-9.3H68.7C68.7,23,64.7,23.4,62.9,19.5z"/>
<rect x="53" y="42" fill="#D6B017" width="22" height="6"/>
<rect x="53" y="53" fill="#D6B017" width="22" height="8"/>
<polygon fill="#D6B017" points="53,67 53,78 42.4,78 64.2,97 86,78 75,78 75,67 "/>
</svg>
