<?xml version="1.0" encoding="utf-8"?>
<!-- Generator: Adobe Illustrator 17.1.0, SVG Export Plug-In . SVG Version: 6.00 Build 0)  -->
<!DOCTYPE svg PUBLIC "-//W3C//DTD SVG 1.1//EN" "http://www.w3.org/Graphics/SVG/1.1/DTD/svg11.dtd">
<svg version="1.1" id="图层_1" xmlns="http://www.w3.org/2000/svg" xmlns:xlink="http://www.w3.org/1999/xlink" x="0px" y="0px"
	 viewBox="0 0 128 128" enable-background="new 0 0 128 128" xml:space="preserve">
<path fill="#E2C551" d="M48,86h76V22c0-9.9-8.1-18-18-18H48V86z"/>
<linearGradient id="SVGID_1_" gradientUnits="userSpaceOnUse" x1="64" y1="4" x2="64" y2="124">
	<stop  offset="0" style="stop-color:#EFDF8E"/>
	<stop  offset="1" style="stop-color:#EACC66"/>
</linearGradient>
<path fill="url(#SVGID_1_)" d="M62.7,19.5c-2.1-4.4-4-8.6-5.2-11.2C55.4,4,48.5,4,48.5,4H22C12.1,4,4,12.1,4,22v84
	c0,9.9,8.1,18,18,18h84c9.9,0,18-8.1,18-18c0,0,0-69.9,0-73.7c0-8.9-9.3-9.3-9.3-9.3H68.5C68.5,23,64.5,23.4,62.7,19.5z"/>
<g>
	<path fill="#D6B017" d="M92.7,88.3l-13-13c2-3.2,3.1-7,3.1-11.1c0-11.8-10.2-22-22-22c-11.8,0-21.4,9.6-21.4,21.4
		c0,11.8,10.2,22,22,22c3.9,0,7.6-1.1,10.7-2.9l13.1,13.1c1.3,1.3,3.4,1.3,4.7,0l3.3-3.2C94.4,91.2,94,89.6,92.7,88.3z M46,63.5
		c0-8.2,6.6-14.8,14.8-14.8c8.2,0,15.4,7.3,15.4,15.4c0,8.2-6.6,14.8-14.8,14.8S46,71.7,46,63.5z"/>
</g>
</svg>
