<?xml version="1.0" encoding="utf-8"?>
<!-- Generator: Adobe Illustrator 17.1.0, SVG Export Plug-In . SVG Version: 6.00 Build 0)  -->
<!DOCTYPE svg PUBLIC "-//W3C//DTD SVG 1.1//EN" "http://www.w3.org/Graphics/SVG/1.1/DTD/svg11.dtd">
<svg version="1.1" id="图层_1" xmlns="http://www.w3.org/2000/svg" xmlns:xlink="http://www.w3.org/1999/xlink" x="0px" y="0px"
	 viewBox="0 0 128 128" enable-background="new 0 0 128 128" xml:space="preserve">
<path fill="#E2C551" d="M48,86h76V22c0-9.9-7.7-18-17.6-18H48V86z"/>
<linearGradient id="SVGID_1_" gradientUnits="userSpaceOnUse" x1="64" y1="4" x2="64" y2="124">
	<stop  offset="0" style="stop-color:#EFDF8E"/>
	<stop  offset="1" style="stop-color:#EACC66"/>
</linearGradient>
<path fill="url(#SVGID_1_)" d="M63.1,19.5c-2.1-4.4-4-8.6-5.2-11.2C55.8,4,48.9,4,48.9,4H22.4C12.4,4,4,12.1,4,22v84
	c0,9.9,8.4,18,18.4,18h84c9.9,0,17.6-8.1,17.6-18c0,0,0-69.9,0-73.7c0-8.9-9-9.3-9-9.3H68.9C68.9,23,64.9,23.4,63.1,19.5z"/>
<path fill="#D6B017" d="M57.4,87.8c-9-7-20.4-1.2-20.4-1.2l5.3-17.5c12.2-5.9,20.2,1.1,20.2,1.1c0,0,0,0,0,0L57.4,87.8z M66.2,72.7
	l-5.2,17.7c3.8,2.4,11,5.4,19.8,1L86,73.7C86,73.7,76.8,79.2,66.2,72.7z M68.9,47.9c-0.7-0.6-8.6-6.8-20.1-1.1l-5.3,17.5
	c0,0,11.4-5.8,20.3,1.1L68.9,47.9z M72.5,50.3L67.3,68c3.7,2.4,11,5.5,19.9,1l5.2-17.6C92.4,51.5,83.1,57,72.5,50.3z"/>
</svg>
