<?xml version="1.0" encoding="utf-8"?>
<!-- Generator: Adobe Illustrator 16.0.0, SVG Export Plug-In . SVG Version: 6.00 Build 0)  -->
<!DOCTYPE svg PUBLIC "-//W3C//DTD SVG 1.1//EN" "http://www.w3.org/Graphics/SVG/1.1/DTD/svg11.dtd">
<svg version="1.1" id="图层_1" xmlns="http://www.w3.org/2000/svg" xmlns:xlink="http://www.w3.org/1999/xlink" x="0px" y="0px"
	 width="128px" height="128px" viewBox="0 0 128 128" enable-background="new 0 0 128 128" xml:space="preserve">
<path fill="#E2C551" d="M48,86h76V22c0-9.9-7.6-18-17.5-18H48V86z"/>
<linearGradient id="SVGID_1_" gradientUnits="userSpaceOnUse" x1="64" y1="4" x2="64" y2="124.0005">
	<stop  offset="0" style="stop-color:#EFDF8E"/>
	<stop  offset="1" style="stop-color:#EACC66"/>
</linearGradient>
<path fill="url(#SVGID_1_)" d="M63.1,19.5c-2.1-4.4-4-8.6-5.2-11.2C55.9,4,49,4,49,4H22.5C12.5,4,4,12.1,4,22v84
	c0,9.9,8.5,18,18.5,18h84c9.9,0,17.5-8.1,17.5-18c0,0,0-69.9,0-73.7c0-8.9-8.9-9.3-8.9-9.3H69C69,23,65,23.4,63.1,19.5z"/>
<path fill="#D6B017" d="M74.5,77.3c-0.5,0-1.1,0.1-1.6,0.1l0,0c0,0-0.1,0-0.2,0c0,0,0,0,0,0c-1.4,0.2-8.3,0.9-9.1-7.6l0,0
	c0,0,0,0,0,0l0,0c0.1-8.3,6.1-8.8,8.9-8.6c0.4,0.1,0.9,0.2,1.3,0.2c0.1,0,0.1,0,0.1,0l0,0c0.2,0,0.3,0,0.5,0c5,0,9-4.1,9-9.1
	s-4.1-9-9-9c-4.8,0-8.7,3.7-9,8.4l0,0c-0.5,9.4-7.4,9-9.2,8.7c0,0-0.1,0-0.1,0c-0.2,0-0.3-0.1-0.3-0.1l0,0c-0.4-0.1-0.9-0.1-1.3-0.1
	c-5,0-9,4.1-9,9s4.1,9,9,9c0.3,0,0.6,0,0.9,0l0,0c0,0,9.2-1.9,10,7.7c0,0,0,0.1,0,0.1c0,0.4,0,0.7,0.1,1.1c0,0,0,0.1,0,0.1l0,0
	c0.6,4.4,4.4,7.9,9,7.9c5,0,9-4.1,9-9S79.5,77.3,74.5,77.3z"/>
</svg>
