<?xml version="1.0" encoding="utf-8"?>
<!-- Generator: Adobe Illustrator 16.0.0, SVG Export Plug-In . SVG Version: 6.00 Build 0)  -->
<!DOCTYPE svg PUBLIC "-//W3C//DTD SVG 1.1//EN" "http://www.w3.org/Graphics/SVG/1.1/DTD/svg11.dtd" [
	<!ENTITY ns_flows "http://ns.adobe.com/Flows/1.0/">
	<!ENTITY ns_extend "http://ns.adobe.com/Extensibility/1.0/">
	<!ENTITY ns_ai "http://ns.adobe.com/AdobeIllustrator/10.0/">
	<!ENTITY ns_graphs "http://ns.adobe.com/Graphs/1.0/">
]>
<svg version="1.1" id="图层_1" xmlns:x="&ns_extend;" xmlns:i="&ns_ai;" xmlns:graph="&ns_graphs;"
	 xmlns="http://www.w3.org/2000/svg" xmlns:xlink="http://www.w3.org/1999/xlink" xmlns:a="http://ns.adobe.com/AdobeSVGViewerExtensions/3.0/"
	 x="0px" y="0px" width="48px" height="48px" viewBox="0 0 48 48" style="enable-background:new 0 0 48 48;" xml:space="preserve">
<style type="text/css">
<![CDATA[
	.st0{fill:#121601;}
	.st1{opacity:0.05;}
	.st2{opacity:0.08;}
	.st3{opacity:0.15;}
	.st4{fill:url(#SVGID_1_);}
	.st5{fill:url(#SVGID_2_);}
	.st6{fill:url(#SVGID_3_);}
	.st7{fill:url(#SVGID_4_);}
	.st8{fill:url(#SVGID_5_);}
	.st9{fill:url(#SVGID_6_);}
	.st10{fill:url(#SVGID_7_);}
	.st11{fill:url(#SVGID_8_);}
	.st12{fill:url(#SVGID_9_);}
	.st13{fill:#99BC1B;}
	.st14{opacity:0.1;}
	.st15{opacity:0.7;fill:#FCFCFC;}
	.st16{fill:url(#SVGID_10_);}
	.st17{fill:url(#SVGID_11_);}
	.st18{fill:#3F5B02;}
]]>
</style>
<linearGradient id="SVGID_1_" gradientUnits="userSpaceOnUse" x1="1.9863281" y1="23.015625" x2="45.9863281" y2="23.015625">
	<stop  offset="0" style="stop-color:#C9CACA"/>
	<stop  offset="0.0622033" style="stop-color:#D6D7D7"/>
	<stop  offset="0.16546" style="stop-color:#E4E4E4"/>
	<stop  offset="0.2910884" style="stop-color:#ECEDED"/>
	<stop  offset="0.5" style="stop-color:#EFEFEF"/>
	<stop  offset="0.7089116" style="stop-color:#ECEDED"/>
	<stop  offset="0.83454" style="stop-color:#E4E4E4"/>
	<stop  offset="0.9377967" style="stop-color:#D6D7D7"/>
	<stop  offset="1" style="stop-color:#C9CACA"/>
	<a:midPointStop  offset="0" style="stop-color:#C9CACA"/>
	<a:midPointStop  offset="0.2" style="stop-color:#C9CACA"/>
	<a:midPointStop  offset="0.5" style="stop-color:#EFEFEF"/>
	<a:midPointStop  offset="0.8" style="stop-color:#EFEFEF"/>
	<a:midPointStop  offset="1" style="stop-color:#C9CACA"/>
</linearGradient>
<path class="st4" d="M45.9863281,39.515625c0,3.0371094-2.4628906,5.5-5.5,5.5h-33c-3.0371094,0-5.5-2.4628906-5.5-5.5v-33
	c0-3.0371094,2.4628906-5.5,5.5-5.5h33c3.0371094,0,5.5,2.4628906,5.5,5.5V39.515625z"/>
<g>
	
		<linearGradient id="SVGID_2_" gradientUnits="userSpaceOnUse" x1="297.6464844" y1="-365.2041016" x2="297.6464844" y2="-345.7643738" gradientTransform="matrix(1 0 0 -1 -273.6601563 -346.9599609)">
		<stop  offset="0.4726" style="stop-color:#FFFFFF;stop-opacity:0.2"/>
		<stop  offset="1" style="stop-color:#FFFFFF"/>
		<a:midPointStop  offset="0.4726" style="stop-color:#FFFFFF;stop-opacity:0.2"/>
		<a:midPointStop  offset="0.5" style="stop-color:#FFFFFF;stop-opacity:0.2"/>
		<a:midPointStop  offset="1" style="stop-color:#FFFFFF"/>
	</linearGradient>
	<path class="st5" d="M43.953125,13.7363281c0,2.4902344-1.6835938,4.5078125-3.9609375,4.5078125H7.9785156
		c-2.2792969,0-3.9589844-2.0175781-3.9589844-4.5078125L3.5234375,6.3598633c0-2.4892578,1.6816406-4.34375,3.9589844-4.34375
		h33.0039063c2.2792969,0,3.9628906,1.8544922,3.9628906,4.34375L43.953125,13.7363281z"/>
	<g>
		
			<radialGradient id="SVGID_3_" cx="298.6640625" cy="-360.8701172" r="16.818367" gradientTransform="matrix(0.9738 0 0 -1 -273.5429688 -346.9599609)" gradientUnits="userSpaceOnUse">
			<stop  offset="0.4051" style="stop-color:#FFFFFF;stop-opacity:0"/>
			<stop  offset="1" style="stop-color:#FFFFFF"/>
			<a:midPointStop  offset="0.4051" style="stop-color:#FFFFFF;stop-opacity:0"/>
			<a:midPointStop  offset="0.5" style="stop-color:#FFFFFF;stop-opacity:0"/>
			<a:midPointStop  offset="1" style="stop-color:#FFFFFF"/>
		</radialGradient>
		<path class="st6" d="M13.7207031,2.0161133H9.9375c0.2773438,0.8183594,0.5,1.7011719,0.75,2.5332031
			C11.59375,3.6821289,12.7695313,2.7993164,13.7207031,2.0161133z M6.0214844,10.9179688
			c-0.6015625,0.8925781-1.4316406,1.9257813-1.9570313,2.8046875c0.8535156,3.4785156,3.0488281,3.6015625,3.0488281,3.6015625
			s1.5546875,0.2792969,2.4902344-1.1914063c0.125-0.2324219,0.2480469-0.4648438,0.3691406-0.6972656
			C8.6171875,14.0898438,7.2617188,12.4433594,6.0214844,10.9179688z M6.5234375,10.2851563
			C7.7226563,11.7558594,9.0625,13.359375,10.375,14.65625c0.4296875-0.8476563,0.9863281-1.9160156,1.4160156-2.7617188
			c-0.4433594-1.9335938-1.0234375-4.0766602-1.5507813-5.949707C9.0566406,7.2290039,7.7421875,8.8222656,6.5234375,10.2851563z
			 M14.8300781,2.0161133c-0.2597656,0.2011719-0.5019531,0.4023438-0.7539063,0.609375
			c-1.0800781,0.8828125-2.1269531,1.7314453-3.1992188,2.7714844c0.4863281,1.7128906,0.9980469,3.737793,1.421875,5.4897461
			c1.7910156-3.3686523,3.9980469-6.6479492,8.0976563-8.8706055H14.8300781z M10.0703125,5.0961914
			C9.7539063,4.0317383,9.4550781,3.0551758,9.0976563,2.0161133H7.5390625c-2.1816406,0-3.8222656,1.8183594-4,4.1953125
			c0.8066406,1.2021484,1.6464844,2.2709961,2.5214844,3.3842773C7.3242188,8.0253906,8.6855469,6.4731445,10.0703125,5.0961914z
			 M3.6015625,7.7416992l0.3066406,4.715332C4.4121094,11.7421875,5.03125,10.9785156,5.5625,10.2949219
			C4.9277344,9.4882813,4.1992188,8.5957031,3.6015625,7.7416992z"/>
	</g>
</g>
<path class="st15" d="M40.4863281,2.0136719h-33c-2.4814453,0-4.5,2.0185547-4.5,4.5v33c0,2.4814453,2.0185547,4.5,4.5,4.5h33
	c2.4814453,0,4.5-2.0185547,4.5-4.5v-33C44.9863281,4.0322266,42.9677734,2.0136719,40.4863281,2.0136719z M43.9863281,39.5136719
	c0,1.9296875-1.5703125,3.5-3.5,3.5h-33c-1.9296875,0-3.5-1.5703125-3.5-3.5v-33c0-1.9296875,1.5703125-3.5,3.5-3.5h33
	c1.9296875,0,3.5,1.5703125,3.5,3.5V39.5136719z"/>
<linearGradient id="SVGID_4_" gradientUnits="userSpaceOnUse" x1="23.9868164" y1="45.0136719" x2="23.9868145" y2="1.0141602">
	<stop  offset="0" style="stop-color:#100B0A;stop-opacity:0.3"/>
	<stop  offset="0.7722" style="stop-color:#231815;stop-opacity:0"/>
	<a:midPointStop  offset="0" style="stop-color:#100B0A;stop-opacity:0.3"/>
	<a:midPointStop  offset="0.5000004" style="stop-color:#100B0A;stop-opacity:0.3"/>
	<a:midPointStop  offset="0.7722" style="stop-color:#231815;stop-opacity:0"/>
</linearGradient>
<path class="st7" d="M40.4863281,1.0136719h-33c-3.0371094,0-5.5,2.4628906-5.5,5.5v33c0,3.0371094,2.4628906,5.5,5.5,5.5h33
	c3.0371094,0,5.5-2.4628906,5.5-5.5v-33C45.9863281,3.4765625,43.5234375,1.0136719,40.4863281,1.0136719z M44.9863281,39.5136719
	c0,2.4814453-2.0185547,4.5-4.5,4.5h-33c-2.4814453,0-4.5-2.0185547-4.5-4.5v-33c0-2.4814453,2.0185547-4.5,4.5-4.5h33
	c2.4814453,0,4.5,2.0185547,4.5,4.5V39.5136719z"/>
<g>
	<path class="st2" d="M40.5146484,44.9912109h-33c-3.0371094,0-5.5-2.4628906-5.5-5.5v4.21875
		c0,2.3730469,1.9238281,4.296875,4.296875,4.296875h35.40625c2.3730469,0,4.296875-1.9238281,4.296875-4.296875v-4.21875
		C46.0146484,42.5283203,43.5517578,44.9912109,40.5146484,44.9912109z"/>
	<path class="st14" d="M40.4863281,45.0351563h-33c-3.0371094,0-5.5-2.4628906-5.5-5.5v2.2080078
		c0,2.3730469,1.0615234,5.2978516,5.296875,5.2978516c4.2363281,0,29.1123047,0,33.4052734,0
		s5.2978516-2.9248047,5.2978516-5.2978516v-2.2080078C45.9863281,42.5722656,43.5234375,45.0351563,40.4863281,45.0351563z"/>
	<path class="st3" d="M40.4863281,45.0351563h-33c-3.0371094,0-5.5-2.4628906-5.5-5.5v1.1923828
		c0,2.3730469,1.8291016,5.2978516,5.296875,5.2978516c3.46875,0,29.4335938,0,33.4052734,0
		s5.2978516-2.9248047,5.2978516-5.2978516v-1.1923828C45.9863281,42.5722656,43.5234375,45.0351563,40.4863281,45.0351563z"/>
	<rect x="6.9335938" y="45.0039063" class="st1" width="33.9697266" height="1.0214844"/>
	<rect x="8.4755859" y="45.0039063" class="st1" width="30.8857422" height="1.0214844"/>
	<rect x="8.4736328" y="46.0253906" class="st1" width="30.8876953" height="1.0214844"/>
	<rect x="10.1396484" y="46.0253906" class="st1" width="27.5556641" height="1.0214844"/>
	<rect x="13.1816406" y="46.0253906" class="st1" width="21.4716797" height="1.0214844"/>
	<rect x="16.6884766" y="46.0253906" class="st1" width="14.4580078" height="1.0214844"/>
	<rect x="10.1396484" y="45.0039063" class="st1" width="27.5556641" height="1.0214844"/>
	<rect x="11.6816406" y="45.0039063" class="st1" width="24.4716797" height="1.0214844"/>
	<rect x="13.1816406" y="45.0039063" class="st1" width="21.4716797" height="1.0214844"/>
	<rect x="14.640625" y="45.0039063" class="st1" width="18.5537109" height="1.0214844"/>
	<rect x="14.640625" y="45.0039063" class="st1" width="18.5537109" height="1.0214844"/>
</g>
<g>
	<path class="st13" d="M25.7167969,18.2236328v-0.9741211h0.6298828c0,0,0.6162109,0.0717773,1.1455078-0.9882813
		c0,0,0.6875-1.2998047,0.7880859-1.4179688c0,0-0.2763672,0.3222656-0.6591797,0.34375h-1.9042969v-0.7875977l-1.1748047,1.9765625
		L25.7167969,18.2236328z"/>
	<path class="st13" d="M26.8652344,14.9648438c2.1914063,0.1386719,1.3017578-1.5224609,1.3017578-1.5224609l-0.8017578-1.3320313
		l-1.5751953,0.9165039L26.8652344,14.9648438z"/>
	<g>
		<path class="st13" d="M19.6933594,12.6494141l0.8505859,0.4746094l-0.3085938,0.550293
			c0,0-0.3623047,0.5029297,0.3046875,1.4824219c0,0,0.7998047,1.234375,0.8535156,1.3793945
			c0,0-0.1464844-0.3984375,0.0214844-0.7431641l0.9296875-1.6625977l0.6875,0.3837891l-1.1533203-1.9892578L19.6933594,12.6494141z
			"/>
		<path class="st13" d="M21.9775391,15.2412109c-1.1894531,1.8452148,0.6953125,1.8793945,0.6953125,1.8793945l1.5527344-0.050293
			l-0.03125-1.8227539L21.9775391,15.2412109z"/>
	</g>
	<g>
		<path class="st13" d="M27.6113281,10.4594727l-0.8476563,0.4794922L26.453125,10.390625
			c0,0-0.2402344-0.5712891-1.4248047-0.5112305c0,0-1.46875,0.0415039-1.6210938,0.0126953
			c0,0,0.4160156,0.0820313,0.6230469,0.4042969l0.9375,1.6582031l-0.6855469,0.3876953l2.2988281,0.0493164L27.6113281,10.4594727z
			"/>
		<path class="st13" d="M24.2089844,11.0644531c-0.9580078-1.9765625-1.9658203-0.3842773-1.9658203-0.3842773l-0.7646484,1.3540039
			l1.5732422,0.9199219L24.2089844,11.0644531z"/>
	</g>
</g>
<g>
	<g>
		<g>
			<linearGradient id="SVGID_5_" gradientUnits="userSpaceOnUse" x1="24.4584961" y1="4.0297852" x2="24.4584961" y2="7.9375">
				<stop  offset="0" style="stop-color:#A6F06C"/>
				<stop  offset="0.3755277" style="stop-color:#679903"/>
				<stop  offset="1" style="stop-color:#497600"/>
				<a:midPointStop  offset="0" style="stop-color:#A6F06C"/>
				<a:midPointStop  offset="0.5" style="stop-color:#A6F06C"/>
				<a:midPointStop  offset="0.3755277" style="stop-color:#679903"/>
				<a:midPointStop  offset="0.5" style="stop-color:#679903"/>
				<a:midPointStop  offset="1" style="stop-color:#497600"/>
			</linearGradient>
			<path class="st8" d="M34.953125,6.871582c0,0.5883789-0.4521484,1.065918-1.0068359,1.065918H14.9726563
				c-0.5566406,0-1.0078125-0.4775391-1.0078125-1.065918V5.0957031c0-0.5888672,0.4511719-1.065918,1.0078125-1.065918h18.9736328
				c0.5546875,0,1.0068359,0.4770508,1.0068359,1.065918V6.871582z"/>
		</g>
	</g>
	<path class="st18" d="M34.4326172,6.6044922c0,0.6469727-0.4277344,0.7836914-0.9580078,0.7836914H15.4423828
		c-0.7060547,0-0.9570313-0.1635742-0.9570313-0.7836914V5.2978516c0-0.4321289,0.4277344-0.7832031,0.9570313-0.7832031h18.0322266
		c0.5302734,0,0.9580078,0.2617188,0.9580078,0.7832031V6.6044922z"/>
	<path class="st0" d="M15.1347656,5.1035156c0-0.2592773,0.2158203-0.46875,0.4824219-0.46875h17.7773438
		c0.2675781,0,0.4824219,0.2094727,0.4824219,0.46875l0,0c0,0.2592773-0.2148438,0.4677734-0.4824219,0.4677734H15.6171875
		C15.3505859,5.5712891,15.1347656,5.362793,15.1347656,5.1035156L15.1347656,5.1035156z"/>
	<linearGradient id="SVGID_6_" gradientUnits="userSpaceOnUse" x1="24.5063477" y1="7.3881836" x2="24.5063477" y2="5.5712891">
		<stop  offset="0" style="stop-color:#AECF00"/>
		<stop  offset="1" style="stop-color:#2E5018"/>
		<a:midPointStop  offset="0" style="stop-color:#AECF00"/>
		<a:midPointStop  offset="0.5" style="stop-color:#AECF00"/>
		<a:midPointStop  offset="1" style="stop-color:#2E5018"/>
	</linearGradient>
	<path class="st9" d="M33.9375,6.7568359c0.0917969,0.347168-0.1308594,0.6313477-0.4941406,0.6313477h-17.875
		c-0.3632813,0-0.5859375-0.2841797-0.4941406-0.6313477l0.1464844-0.5537109
		c0.1259766-0.3955078,0.4648438-0.6318359,0.8291016-0.6318359h16.9130859c0.3623047,0,0.7353516,0.284668,0.828125,0.6318359
		L33.9375,6.7568359z"/>
</g>
<g>
	<linearGradient id="SVGID_7_" gradientUnits="userSpaceOnUse" x1="24.019043" y1="20.019043" x2="24.019043" y2="39.9692383">
		<stop  offset="0.0042194" style="stop-color:#A6D01F"/>
		<stop  offset="0.7" style="stop-color:#679903"/>
		<stop  offset="1" style="stop-color:#3F6F00"/>
		<a:midPointStop  offset="0.0042194" style="stop-color:#A6D01F"/>
		<a:midPointStop  offset="0.5" style="stop-color:#A6D01F"/>
		<a:midPointStop  offset="0.7" style="stop-color:#679903"/>
		<a:midPointStop  offset="0.5" style="stop-color:#679903"/>
		<a:midPointStop  offset="1" style="stop-color:#3F6F00"/>
	</linearGradient>
	<path class="st10" d="M41.9863281,36.8271484c0.1923828,1.7050781-1.0302734,3.1416016-3.1816406,3.1416016H9.2216797
		c-2.3266602,0-3.2866211-1.5947266-3.1811523-3.1416016c0,0,1.1674805-12.0810547,1.2729492-13.6665039
		c0.105957-1.5859375,1.4238281-3.1416016,3.1806641-3.1416016h27.0390625c1.7558594,0,3.0224609,1.4628906,3.1806641,3.1416016
		C40.8701172,24.8388672,41.9863281,36.8271484,41.9863281,36.8271484z"/>
	<linearGradient id="SVGID_8_" gradientUnits="userSpaceOnUse" x1="24.0136719" y1="39.34375" x2="24.0136719" y2="20.5229492">
		<stop  offset="0" style="stop-color:#8FC31F"/>
		<stop  offset="0.5" style="stop-color:#598001"/>
		<stop  offset="1" style="stop-color:#364A00"/>
		<a:midPointStop  offset="0" style="stop-color:#8FC31F"/>
		<a:midPointStop  offset="0.5" style="stop-color:#8FC31F"/>
		<a:midPointStop  offset="0.5" style="stop-color:#598001"/>
		<a:midPointStop  offset="0.5" style="stop-color:#598001"/>
		<a:midPointStop  offset="1" style="stop-color:#364A00"/>
	</linearGradient>
	<path class="st11" d="M41.2695313,36.6875c0.1914063,1.7587891-1.0644531,2.65625-2.8955078,2.65625H9.4956055
		c-1.6860352,0-2.9345703-1.078125-2.7373047-2.8115234l1.222168-13.0463867
		c0.1411133-1.8618164,1.3676758-2.9633789,3.0541992-2.9633789h25.9584961c1.6875,0,3.0546875,1.3276367,3.0546875,2.9633789
		L41.2695313,36.6875z"/>
	<linearGradient id="SVGID_9_" gradientUnits="userSpaceOnUse" x1="24.0195313" y1="31.1914063" x2="24.0195313" y2="39.2548828">
		<stop  offset="0" style="stop-color:#3F6400"/>
		<stop  offset="1" style="stop-color:#A3D91F"/>
		<a:midPointStop  offset="0" style="stop-color:#3F6400"/>
		<a:midPointStop  offset="0.5" style="stop-color:#3F6400"/>
		<a:midPointStop  offset="1" style="stop-color:#A3D91F"/>
	</linearGradient>
	<path class="st12" d="M9.546875,39.2548828c-0.9277344,0-1.3598633-0.7050781-0.9594727-1.5703125l2.2788086-4.9248047
		c0.4003906-0.8642578,1.4858398-1.5683594,2.4140625-1.5683594h21.4794922c0.9267578,0,2.0136719,0.7041016,2.4130859,1.5683594
		l2.2792969,4.9248047c0.4003906,0.8652344-0.03125,1.5703125-0.9609375,1.5703125H9.546875z"/>
	<linearGradient id="SVGID_10_" gradientUnits="userSpaceOnUse" x1="11.5" y1="29.1601563" x2="5.5613985" y2="29.1601563">
		<stop  offset="0" style="stop-color:#3F6400"/>
		<stop  offset="1" style="stop-color:#8FC31F"/>
		<a:midPointStop  offset="0" style="stop-color:#3F6400"/>
		<a:midPointStop  offset="0.5" style="stop-color:#3F6400"/>
		<a:midPointStop  offset="1" style="stop-color:#8FC31F"/>
	</linearGradient>
	<path class="st16" d="M11.4052734,20.5336914v8.7885742c0,0,0.1601563,1.1982422-0.6162109,2.828125
		c-0.7768555,1.6308594-2.1210938,4.3046875-3.0410156,5.3261719c-1.3637695,1.5126953-0.8452148-2.8330078-0.8452148-2.8330078
		s1.1137695-11.7944336,1.1088867-11.6450195C8.0068359,23.1464844,8.2856445,20.3330078,11.4052734,20.5336914z"/>
	
		<linearGradient id="SVGID_11_" gradientUnits="userSpaceOnUse" x1="-83.09375" y1="29.1611328" x2="-89.0424118" y2="29.1611328" gradientTransform="matrix(-1 0 0 1 -46.578125 0)">
		<stop  offset="0" style="stop-color:#3F6400"/>
		<stop  offset="1" style="stop-color:#8FC31F"/>
		<a:midPointStop  offset="0" style="stop-color:#3F6400"/>
		<a:midPointStop  offset="0.5" style="stop-color:#3F6400"/>
		<a:midPointStop  offset="1" style="stop-color:#8FC31F"/>
	</linearGradient>
	<path class="st17" d="M36.6103516,20.5336914v8.7885742c0,0-0.1601563,1.1982422,0.6171875,2.828125
		c0.7783203,1.6308594,2.1259766,4.3046875,3.046875,5.3261719c1.3662109,1.5126953,0.8457031-2.8330078,0.8457031-2.8330078
		s-1.1142578-11.7944336-1.109375-11.6450195C40.015625,23.1464844,39.7363281,20.3330078,36.6103516,20.5336914z"/>
</g>
</svg>
