<?xml version="1.0" encoding="utf-8"?>
<!-- Generator: Adobe Illustrator 15.0.0, SVG Export Plug-In . SVG Version: 6.00 Build 0)  -->
<!DOCTYPE svg PUBLIC "-//W3C//DTD SVG 1.1//EN" "http://www.w3.org/Graphics/SVG/1.1/DTD/svg11.dtd">
<svg version="1.1" id="Layer_1" xmlns="http://www.w3.org/2000/svg" xmlns:xlink="http://www.w3.org/1999/xlink" x="0px" y="0px"
	 width="22px" height="22px" viewBox="0 0 22 22" enable-background="new 0 0 22 22" xml:space="preserve">
<path fill="#F5F5F5" d="M43.589,20.534c-0.681,0.34-1.359,0.681-2.209,0.681H28.46c-1.021,0-1.869-0.341-2.55-1.021
	c0.681,0.68,1.529,1.021,2.55,1.021h12.92c0.85,0,1.528-0.342,2.209-0.68c1.02-0.683,1.699-1.873,1.699-3.237
	C45.288,18.662,44.608,19.852,43.589,20.534z"/>
<path fill="#363636" d="M18.589,2.505c-0.596-0.297-1.19-0.596-1.934-0.596H5.346c-0.893,0-1.636,0.298-2.23,0.894
	C2.371,3.4,1.925,4.294,1.925,5.337v0.149v0v11.027v0.148c0,1.043,0.446,1.938,1.189,2.535c0.596,0.594,1.339,0.893,2.231,0.893
	h11.31c0.743,0,1.338-0.299,1.934-0.596c0.893-0.598,1.487-1.639,1.487-2.832V5.337C20.076,4.145,19.481,3.102,18.589,2.505z
	 M19.036,16.363c0,1.342-1.191,2.535-2.53,2.684H7.43c0.744-0.297,1.638-0.893,2.381-1.342c0.894-0.596,1.637-1.043,2.083-1.488
	c0.297-0.297,0.745-0.447,1.042-0.744c1.935-1.791,3.57-4.025,1.636-7.602c-0.148-0.298-1.041-1.341-1.487-1.49
	c0,0,0.595,0.745,0.893,1.788c0.297,0.894,0.297,2.832-0.596,4.023c-0.148,0.148-0.297,0.447-0.445,0.598
	c-0.596,0.596-1.488,1.043-3.125,1.342c-0.596,0-1.191,0.148-1.934,0.148c-2.381,0-4.018-0.598-4.91-1.045V5.635
	c0-0.895,0.446-1.639,1.189-2.086c0.149,2.832,1.34,5.812,2.53,7.153c1.04,1.191,2.232,1.791,3.124,1.937c0.148,0,0.298,0,0.298,0
	c1.042,0,1.934-0.596,2.381-1.34c0.149-0.3,0.298-0.598,0.446-0.895c0.148-0.448,0.297-1.043,0.297-1.938
	c0-0.745-0.148-1.639-0.297-1.938c0-0.147-0.148-0.297-0.148-0.297s0,0-0.148,0c0,0.297,0,1.191,0,1.937
	c-0.149,0.894-0.299,1.341-0.597,1.937c-0.148,0.596-0.892,1.491-1.636,1.491c-0.298,0-0.447,0-0.596-0.15
	c-0.447,0-0.743-0.297-1.042-0.745c-0.446-0.596-0.595-1.639-0.595-2.532c0-1.043,0.148-2.086,0.446-2.832
	c0.148-0.596,0.447-1.49,1.041-2.383h4.315c-0.298,0.298-0.744,0.447-1.042,0.744c-0.595,0.447-1.19,0.895-1.638,1.342
	c-0.594,0.596-1.04,1.341-1.486,1.937C9.661,7.274,9.513,7.721,9.363,8.02C9.067,8.764,9.067,9.361,9.216,9.808
	c0.147,0.446,0.298,0.745,0.595,0.745c0.148,0,0.148,0,0.148,0c0.745,0,1.489-1.043,1.638-1.789
	c0.297-0.894,0.297-1.789,0.445-2.533c-0.298,0-0.745,0.149-0.892,0.298c-0.148,0.446-0.298,1.341-0.596,1.938
	c-0.148,0.447-0.446,0.894-0.744,1.192H9.661c-0.298,0-0.445-0.298-0.445-0.596c0.147,0,0.445-0.149,0.595-0.596l0.148-0.149
	c0.298-0.447,0.298-1.042,0.447-1.342c0,0,0.446-0.595,1.041-0.894c0.595-0.298,0.893-0.447,1.488-0.595
	c0.148-0.15,0.445-0.15,0.743-0.297c0.894-0.149,1.488,0,2.679-0.149c0.894,0,1.785-0.299,2.381-0.448
	c0.148,0.299,0.298,0.746,0.298,1.043V16.363z"/>
</svg>
