<?xml version="1.0" encoding="utf-8"?>
<!-- Generator: Adobe Illustrator 16.0.0, SVG Export Plug-In . SVG Version: 6.00 Build 0)  -->
<!DOCTYPE svg PUBLIC "-//W3C//DTD SVG 1.1//EN" "http://www.w3.org/Graphics/SVG/1.1/DTD/svg11.dtd">
<svg version="1.1" id="图层_1" xmlns="http://www.w3.org/2000/svg" xmlns:xlink="http://www.w3.org/1999/xlink" x="0px" y="0px"
	 width="16px" height="16px" viewBox="0 0 16 16" enable-background="new 0 0 16 16" xml:space="preserve">
<path id="lock-9-icon" fill="#BEBEBE" d="M6.822,6.89V4.761c0-1.137-0.925-2.062-2.062-2.062S2.699,3.624,2.699,4.761V6.89H1V4.761
	C1,2.687,2.687,1,4.76,1c2.074,0,3.761,1.687,3.761,3.761V6.89H6.822z M4.942,7.909v7.092H15V7.909H4.942z"/>
<path fill="#FFFFFF" d="M10.82,12.767V9.15h-0.77c0,0.192-0.082,0.356-0.248,0.492c-0.2,0.164-0.506,0.246-0.916,0.246H8.753v0.588
	h1.13v2.29H8.781v0.753h2.997v-0.753H10.82z"/>
</svg>
