<?xml version="1.0" encoding="utf-8"?>
<!-- Generator: Adobe Illustrator 16.0.0, SVG Export Plug-In . SVG Version: 6.00 Build 0)  -->
<!DOCTYPE svg PUBLIC "-//W3C//DTD SVG 1.1//EN" "http://www.w3.org/Graphics/SVG/1.1/DTD/svg11.dtd">
<svg version="1.1" id="图层_1" xmlns="http://www.w3.org/2000/svg" xmlns:xlink="http://www.w3.org/1999/xlink" x="0px" y="0px"
	 width="16px" height="16px" viewBox="0 0 16 16" enable-background="new 0 0 16 16" xml:space="preserve">
<path fill="#BEBEBE" d="M5.938,6.89H4.239V4.761C4.239,2.687,5.926,1,8,1c2.073,0,3.762,1.687,3.762,3.761V6.89h-1.701V4.761
	c0-1.137-0.922-2.062-2.061-2.062c-1.137,0-2.062,0.924-2.062,2.062V6.89z"/>
<rect x="2.971" y="7.909" fill="#BEBEBE" width="10.056" height="7.092"/>
<path fill="#FFFFFF" d="M8.633,12.768V9.15h-0.77c0,0.191-0.082,0.355-0.248,0.492c-0.2,0.164-0.505,0.246-0.916,0.246H6.565v0.588
	h1.13v2.289H6.594v0.754h2.997v-0.754H8.633V12.768z"/>
</svg>
